<svg width="47" height="49" viewBox="0 0 47 49" fill="none" xmlns="http://www.w3.org/2000/svg">
<path d="M23.2126 17.1049C18.688 17.1049 15.0201 13.3952 15.0201 8.81902C15.0201 4.24281 18.688 0.533203 23.2126 0.533203C27.7374 0.533203 31.4054 4.24281 31.4054 8.81902C31.4054 13.3952 27.7374 17.1049 23.2126 17.1049ZM40.6582 35.8912C38.8562 33.1899 36.4533 30.928 33.6421 29.3002C27.2274 25.5861 19.1912 25.5858 12.7764 29.3002C9.96705 30.927 7.56546 33.1869 5.76385 35.8861C6.93797 37.6468 8.36607 39.2211 9.9953 40.5543C17.6555 46.8235 28.7688 46.8237 36.4294 40.555C38.0575 39.223 39.4846 37.6506 40.6582 35.8912ZM3.44218 11.7128C5.55524 8.24544 8.53387 5.3785 12.0651 3.41919C13.395 7.96047 13.3284 12.8951 11.873 17.3974C13.5498 17.1252 15.2563 17.0412 16.9514 17.1459C14.1664 23.0637 9.06697 27.5232 2.88759 29.4927C3.28548 31.0066 3.84489 32.4544 4.54554 33.816C6.45871 31.2019 8.89337 29.005 11.6926 27.3841C18.7786 23.2809 27.6398 23.2812 34.7259 27.3841C37.5273 29.0062 39.9633 31.2051 41.877 33.8215C42.5792 32.4583 43.1394 31.0087 43.5381 29.4927C37.3587 27.5233 32.2591 23.0634 29.4741 17.1459C31.1692 17.0412 32.8756 17.1252 34.5525 17.3974C33.0971 12.8951 33.0305 7.96047 34.3603 3.41919C37.8915 5.3785 40.8702 8.24544 42.9832 11.7128C48.0451 20.0191 47.4545 30.5796 41.6776 38.2399L43.372 39.6777L41.9724 41.3694L40.2756 39.9295C39.8527 40.3929 39.4119 40.8391 38.9539 41.2666L40.3777 42.9828L38.7049 44.3985L37.2839 42.6853C36.7882 43.068 36.2769 43.4308 35.7507 43.773L36.859 45.7141L34.9729 46.8105L33.8679 44.8746C33.3144 45.1645 32.748 45.4324 32.1698 45.6771L32.9271 47.7822L30.879 48.5332L30.1225 46.4311C25.6521 47.8395 20.7733 47.8395 16.3028 46.4311L15.5464 48.5332L13.4983 47.7823L14.2557 45.6771C13.6775 45.4324 13.1111 45.1645 12.5574 44.8746L11.4524 46.8105L9.56651 45.7141L10.6747 43.773C10.1486 43.4308 9.63724 43.068 9.14158 42.6853L7.72047 44.3985L6.04754 42.9828L7.47155 41.2666C7.01354 40.8388 6.57266 40.3927 6.1499 39.9295L4.45307 41.3694L3.05346 39.6777L4.74787 38.2398C-1.01478 30.5983 -1.63021 20.0362 3.44218 11.7128ZM29.7636 34.1296C28.8586 34.1296 28.1249 34.8715 28.1249 35.7867C28.1249 36.7018 28.8586 37.444 29.7636 37.444C30.6685 37.444 31.402 36.7018 31.402 35.7867C31.402 34.8715 30.6685 34.1296 29.7636 34.1296ZM16.6549 34.1296C17.5597 34.1296 18.2936 34.8715 18.2936 35.7867C18.2936 36.7018 17.5597 37.444 16.6549 37.444C15.75 37.444 15.0163 36.7018 15.0163 35.7867C15.0163 34.8715 15.75 34.1296 16.6549 34.1296ZM33.3383 19.4514C35.9595 23.154 39.6961 25.9252 43.9876 27.3234C44.7591 22.3267 43.7605 17.1837 41.1315 12.8695C39.7398 10.5859 37.9323 8.58826 35.8161 6.984C35.1298 11.7145 36.0296 16.5684 38.3979 20.7163C36.771 20.0836 35.0693 19.6566 33.3383 19.4514ZM25.1832 8.52283C25.6495 8.24934 25.8818 7.71922 25.8238 7.23256C25.718 6.34789 24.7981 6.0942 24.0499 6.04707V4.82298H23.3036V6.03265C23.1371 6.03265 22.9424 6.03265 22.7352 6.03265V4.82298H21.989V6.03265C21.2272 6.03265 20.5208 6.03265 20.5208 6.03265V6.81648C20.5208 6.81648 20.8347 6.81648 20.9523 6.81648C21.311 6.81648 21.4727 6.90684 21.4727 7.27945C21.4727 7.47504 21.4727 10.3285 21.4727 10.4025C21.4727 10.6501 21.3375 10.7022 21.1206 10.7022C20.9706 10.7022 20.6744 10.7022 20.6744 10.7022L20.5208 11.6088C20.5208 11.6088 21.2504 11.6088 21.989 11.6088V12.8151H22.7352V11.6088C22.9644 11.6088 23.1641 11.6088 23.3036 11.6088V12.8151H24.0499V11.5888C25.2298 11.5192 26.2028 11.2665 26.2328 9.83115C26.2479 9.11472 25.8643 8.66836 25.1832 8.52283ZM22.7352 6.88632C23.2713 6.83847 24.4275 6.81111 24.4474 7.57759C24.4683 8.4066 23.2911 8.35971 22.7352 8.34286V6.88632ZM22.7352 10.7129V9.09397C23.3383 9.06271 24.7822 9.0063 24.7822 9.88047C24.7822 10.7815 23.3635 10.7263 22.7352 10.7129ZM13.0872 19.4514C11.3558 19.6566 9.65439 20.0836 8.02758 20.7163C10.4082 16.5252 11.3034 11.7675 10.6093 6.984C8.49306 8.58826 6.68566 10.5859 5.294 12.8695C2.66498 17.1837 1.66639 22.3267 2.43779 27.3234C6.72936 25.9252 10.4659 23.154 13.0872 19.4514ZM23.2126 14.8952C26.5312 14.8952 29.2208 12.175 29.2208 8.81902C29.2208 5.46298 26.5312 2.74281 23.2126 2.74281C19.8942 2.74281 17.2046 5.46298 17.2046 8.81902C17.2046 12.175 19.8942 14.8952 23.2126 14.8952Z" fill="white"/>
</svg>
