<svg width="85" height="72" viewBox="0 0 85 72" fill="none" xmlns="http://www.w3.org/2000/svg">
<g style="mix-blend-mode:multiply" opacity="0.4">
<path d="M70.1044 17.1871L18.6557 46.7678C17.1765 47.6237 17.3159 48.2977 18.9665 48.287H58.2391L63.5983 44.4035C66.9961 38.5836 70.3295 32.7959 73.5665 26.8797L73.7273 15.8926C72.4624 16.1435 71.2416 16.5798 70.1044 17.1871Z" fill="#50197C"/>
</g>
<path d="M56.5241 0.615546C56.1999 0.485071 55.8477 0.439195 55.5007 0.482246C55.1538 0.525297 54.8236 0.655856 54.5412 0.861607L3.19961 30.3782C2.45685 30.8251 1.82883 31.4388 1.36551 32.1706C0.902179 32.9023 0.616331 33.7319 0.530701 34.5933V69.9618C0.498382 70.248 0.553825 70.5372 0.689704 70.7913C0.825584 71.0453 1.0355 71.2522 1.29171 71.3847L2.0956 71.7591C2.4103 71.8564 2.74322 71.88 3.06853 71.828C3.39383 71.7761 3.70277 71.65 3.97134 71.4596L55.3129 41.943C56.056 41.4991 56.6845 40.8875 57.148 40.1574C57.6115 39.4272 57.897 38.5988 57.9818 37.7386V2.35937C58.0022 2.10671 57.959 1.85297 57.856 1.62127C57.7531 1.38956 57.5936 1.18726 57.3923 1.03278C57.1029 0.84021 56.7814 0.765322 56.5241 0.615546Z" fill="#E0DBE1"/>
<path d="M55.27 41.9431L3.92843 71.4597C2.45999 72.3048 1.25952 71.802 1.25952 70.3257V34.9464C1.34675 34.0869 1.63335 33.2595 2.0966 32.5297C2.55986 31.7999 3.18703 31.1879 3.92843 30.742L55.3129 1.22546C56.7813 0.380301 57.9818 0.88312 57.9818 2.35948V37.7387C57.8923 38.6028 57.6002 39.4338 57.1291 40.1642C56.658 40.8947 56.0211 41.5041 55.27 41.9431Z" fill="#07DBB4"/>
<path d="M45.7627 15.7001C45.5949 15.8176 45.4023 15.8951 45.1997 15.9266C44.9972 15.9582 44.7901 15.9429 44.5944 15.882C44.4321 15.8016 44.2987 15.6732 44.2123 15.5142C44.126 15.3553 44.091 15.1736 44.1121 14.994V12.6618C44.164 12.1283 44.3403 11.6143 44.627 11.161C44.9136 10.7078 45.3025 10.3277 45.7627 10.0514L53.1263 5.82558C53.2936 5.70701 53.4858 5.62804 53.6882 5.59467C53.8906 5.56131 54.098 5.57442 54.2946 5.63301C54.4569 5.71336 54.5903 5.8418 54.6767 6.00075C54.763 6.15969 54.798 6.34139 54.777 6.52096V8.86389C54.7222 9.39648 54.5435 9.90893 54.255 10.3603C53.9666 10.8117 53.5764 11.1895 53.1156 11.4636L45.7627 15.7001Z" fill="#F0F2FF"/>
<path opacity="0.4" d="M6.09363 66.9341C5.92581 67.0516 5.73321 67.1291 5.53066 67.1606C5.32811 67.1921 5.12102 67.1769 4.92532 67.1159C4.76304 67.0356 4.62961 66.9071 4.54327 66.7482C4.45693 66.5892 4.4219 66.4076 4.44298 66.228V61.7454C4.4941 61.2117 4.67011 60.6974 4.95681 60.244C5.24352 59.7906 5.63292 59.4107 6.09363 59.135L14.1218 54.5241C14.2891 54.4055 14.4812 54.3265 14.6837 54.2932C14.8861 54.2598 15.0935 54.2729 15.2901 54.3315C15.4524 54.4118 15.5858 54.5403 15.6721 54.6992C15.7585 54.8582 15.7935 55.0399 15.7724 55.2194V59.7127C15.7197 60.2446 15.5429 60.7567 15.2563 61.2082C14.9697 61.6596 14.5811 62.0378 14.1218 62.3124L6.09363 66.9341Z" fill="#3452A5"/>
<path d="M13.9181 54.7383L5.88991 59.3599C5.5097 59.5848 5.18756 59.8955 4.94931 60.2671C4.71106 60.6387 4.56333 61.0608 4.51794 61.4996V65.9822C4.51794 66.7417 5.1289 67.052 5.87919 66.5599L13.9073 61.9489C14.287 61.7233 14.6087 61.4125 14.8469 61.041C15.085 60.6696 15.2331 60.2478 15.2793 59.8092V55.316C15.2793 54.5671 14.6684 54.2996 13.9181 54.7383Z" fill="#FFC440"/>
<g opacity="0.6">
<path d="M14.1646 61.7884L14.4111 61.5744V54.5457L14.1753 54.6205V56.3644L11.6351 57.8407C11.5064 57.156 10.8312 56.9528 10.0273 57.4235C9.61721 57.6744 9.26237 58.0057 8.98419 58.3974C8.70601 58.7891 8.51027 59.2329 8.40879 59.7022L5.71845 61.2107V59.4562L5.47192 59.638V66.731L5.70773 66.6454V64.6983L8.40879 63.1899C8.51598 63.928 9.19124 64.1527 10.0166 63.6713C10.4384 63.4189 10.8012 63.0792 11.0804 62.675C11.3596 62.2709 11.5487 61.8117 11.6351 61.3284L14.1646 59.8734V61.7884ZM8.38735 59.9804V62.9438L5.71845 64.463V61.4567L8.38735 59.9804ZM10.0058 57.6375C10.6811 57.2523 11.2385 57.4021 11.3778 57.9584L8.63388 59.5418C8.72246 59.1485 8.88962 58.7772 9.12536 58.45C9.3611 58.1228 9.66057 57.8464 10.0058 57.6375ZM10.0058 63.4145C9.31986 63.8104 8.74106 63.6285 8.63388 63.0294L11.3885 61.446C11.3055 61.8512 11.14 62.2351 10.9021 62.5737C10.6643 62.9123 10.3592 63.1985 10.0058 63.4145ZM11.41 61.1893L8.61244 62.8047V59.8413L11.41 58.1831V61.1893ZM11.6565 61.0502V58.0975L14.1646 56.6104V59.6166L11.6565 61.0502Z" fill="#D88C1D"/>
</g>
<path d="M49.8787 38.5089C49.9302 37.5826 50.1997 36.6815 50.6652 35.8785C51.1308 35.0755 51.7793 34.3934 52.5583 33.8872C54.0267 33.0421 55.2272 33.7268 55.2272 35.4278C55.1768 36.3531 54.909 37.2536 54.4454 38.0565C53.9817 38.8594 53.3353 39.5421 52.5583 40.0494C51.0791 40.9053 49.8787 40.2099 49.8787 38.5089Z" fill="#F4AC1C"/>
<path d="M43.7369 42.0499C43.7938 41.1212 44.0688 40.2188 44.54 39.4159C45.0111 38.613 45.665 37.9321 46.4487 37.4282C47.9279 36.5831 49.1283 37.2678 49.1283 38.9688C49.0776 39.8953 48.8085 40.7967 48.3429 41.5998C47.8773 42.4029 47.2283 43.085 46.4487 43.5905C44.9374 44.4463 43.7369 43.7509 43.7369 42.0499Z" fill="#B53333"/>
<path d="M6.47946 50.2127C6.60802 49.9918 6.67466 49.7406 6.6724 49.4852V47.5167C6.6724 47.2492 6.60808 47.0888 6.47946 47.0139C6.39222 46.9802 6.29753 46.9703 6.2052 46.9854C6.11286 47.0004 6.02623 47.0398 5.95426 47.0995L5.46121 47.3776C5.24039 47.5035 5.05581 47.684 4.92528 47.9018C4.79681 48.1266 4.73025 48.3813 4.73235 48.64V50.6085C4.73235 50.8653 4.79666 51.0364 4.92528 51.1113C5.0539 51.1862 5.23612 51.1113 5.46121 51.0257L5.95426 50.7476C6.17248 50.6173 6.35337 50.4331 6.47946 50.2127ZM6.31869 49.6778C6.32554 49.8261 6.28985 49.9734 6.21581 50.1022C6.14177 50.2311 6.03244 50.3362 5.90066 50.4052L5.50408 50.6406C5.2254 50.8011 5.09678 50.7155 5.09678 50.3838V48.4475C5.08624 48.2998 5.11918 48.1522 5.19155 48.023C5.26391 47.8937 5.37254 47.7884 5.50408 47.72L5.90066 47.4846C6.17934 47.3206 6.31869 47.4062 6.31869 47.7414V49.6778Z" fill="#F0F2FF"/>
<path d="M8.98759 48.7684C9.11471 48.547 9.18124 48.2961 9.18053 48.041V46.0725C9.18053 45.805 9.11621 45.6338 8.98759 45.5696C8.85897 45.5055 8.68748 45.5162 8.46239 45.6445L7.96934 45.9334C7.75641 46.0582 7.57817 46.2342 7.45086 46.4453C7.32355 46.6565 7.25122 46.8961 7.24048 47.1423V49.1215C7.24048 49.3782 7.30479 49.5494 7.44413 49.6243C7.58347 49.6992 7.74425 49.6243 7.96934 49.5387L8.46239 49.2606C8.67541 49.1422 8.85583 48.9732 8.98759 48.7684ZM8.82681 48.2121C8.83218 48.359 8.79704 48.5045 8.72521 48.6328C8.65339 48.7611 8.54764 48.8672 8.41951 48.9396L8.01221 49.175C7.74425 49.3247 7.60491 49.2392 7.60491 48.9182V47.0032C7.59705 46.8559 7.63114 46.7095 7.70322 46.5807C7.7753 46.452 7.88243 46.3462 8.01221 46.2757L8.41951 46.0404C8.68748 45.8799 8.82681 45.9655 8.82681 46.2971V48.2121Z" fill="#F0F2FF"/>
<path d="M11.5064 47.3243C11.6336 47.1029 11.7001 46.852 11.6994 46.5968V44.6283C11.6994 44.3644 11.6351 44.1932 11.5064 44.1148C11.4169 44.0842 11.3212 44.0761 11.2278 44.091C11.1344 44.1059 11.046 44.1435 10.9705 44.2004L10.4775 44.4892C10.2785 44.617 10.1161 44.7939 10.0059 45.0027C9.8773 45.2236 9.81066 45.4748 9.81292 45.7302V47.6987C9.81292 47.9662 9.87723 48.1266 10.0059 48.2015C10.1345 48.2764 10.306 48.2015 10.5311 48.1266L11.0241 47.8378C11.224 47.7079 11.3895 47.5318 11.5064 47.3243ZM11.3457 46.7787C11.3533 46.9286 11.318 47.0776 11.244 47.2083C11.17 47.339 11.0603 47.446 10.9276 47.5168L10.5203 47.7415C10.2524 47.902 10.113 47.8164 10.113 47.4847V45.5484C10.1077 45.4015 10.1428 45.256 10.2146 45.1277C10.2865 44.9994 10.3922 44.8933 10.5203 44.8209L10.9276 44.5962C11.2063 44.4357 11.3457 44.5213 11.3457 44.8423V46.7787Z" fill="#F0F2FF"/>
<path d="M14.0146 45.8799C14.1417 45.6585 14.2083 45.4076 14.2075 45.1524V43.1732C14.2075 42.9165 14.1432 42.7453 14.0146 42.6704C13.886 42.5955 13.7038 42.6704 13.4787 42.756L12.9856 43.0341C12.7674 43.1644 12.5865 43.3487 12.4604 43.5691C12.3304 43.7893 12.2636 44.041 12.2675 44.2965V46.265C12.2675 46.5218 12.3318 46.693 12.4604 46.7678C12.5465 46.8042 12.6409 46.8164 12.7334 46.8032C12.826 46.79 12.9132 46.7519 12.9856 46.693L13.4787 46.4041C13.6995 46.2783 13.8841 46.0977 14.0146 45.8799ZM13.8538 45.3343C13.862 45.4829 13.8269 45.6307 13.7527 45.7598C13.6785 45.8889 13.5685 45.9938 13.4358 46.0618L13.0392 46.2971C12.7605 46.4576 12.6319 46.372 12.6319 46.0404V44.104C12.6228 43.9565 12.6563 43.8095 12.7285 43.6805C12.8007 43.5515 12.9086 43.446 13.0392 43.3765L13.4358 43.1411C13.7145 42.9771 13.8538 43.0627 13.8538 43.3979V45.3343Z" fill="#F0F2FF"/>
<path d="M20.1241 42.3497C20.256 42.1297 20.3263 41.8785 20.3278 41.6222V39.6537C20.3278 39.3862 20.2528 39.2258 20.1241 39.1509C19.9955 39.076 19.824 39.1509 19.5989 39.2365L19.1059 39.5146C18.8859 39.6378 18.7041 39.8192 18.5807 40.0388C18.4522 40.2636 18.3856 40.5183 18.3877 40.777V42.7455C18.3877 43.0023 18.4521 43.1734 18.5807 43.2483C18.7093 43.3232 18.8808 43.2483 19.1059 43.1627L19.6525 42.8632C19.8505 42.7344 20.0127 42.5577 20.1241 42.3497ZM19.9634 41.8147C19.9712 41.962 19.9371 42.1085 19.8651 42.2372C19.793 42.366 19.6858 42.4717 19.5561 42.5422L19.1488 42.7776C18.8808 42.9274 18.7415 42.8418 18.7415 42.5208V40.5844C18.7336 40.4372 18.7677 40.2907 18.8398 40.1619C18.9118 40.0332 19.019 39.9275 19.1488 39.857L19.5561 39.6216C19.8347 39.4611 19.9634 39.5467 19.9634 39.8784V41.8147Z" fill="#F0F2FF"/>
<path d="M22.643 40.9053C22.7701 40.6839 22.8366 40.433 22.8359 40.1778V38.2094C22.8359 37.9455 22.7716 37.7743 22.643 37.6958C22.5535 37.6653 22.4578 37.6571 22.3644 37.6721C22.2709 37.687 22.1826 37.7245 22.1071 37.7814L21.614 38.0703C21.394 38.1935 21.2123 38.3749 21.0888 38.5945C20.9617 38.8159 20.8952 39.0668 20.8959 39.322V41.2905C20.8959 41.5579 20.9602 41.7184 21.0888 41.7933C21.2174 41.8682 21.3889 41.7933 21.614 41.7184L22.1071 41.4295C22.33 41.3066 22.5153 41.1254 22.643 40.9053ZM22.4822 40.3597C22.4898 40.5097 22.4546 40.6587 22.3806 40.7894C22.3066 40.9201 22.1968 41.0271 22.0642 41.0979L21.6569 41.3333C21.3889 41.483 21.2496 41.3974 21.2496 41.0658V39.1401C21.2422 38.9915 21.2764 38.8437 21.3483 38.7133C21.4203 38.583 21.5271 38.4752 21.6569 38.4019L22.0642 38.1773C22.3429 38.0168 22.4822 38.1024 22.4822 38.4233V40.3597Z" fill="#F0F2FF"/>
<path d="M25.1511 39.4609C25.2782 39.2395 25.3448 38.9886 25.344 38.7334V36.7649C25.344 36.5011 25.2797 36.3299 25.1511 36.2514C25.0639 36.2177 24.9692 36.2079 24.8768 36.2229C24.7845 36.238 24.6979 36.2774 24.6259 36.337L24.1328 36.6259C23.9099 36.7488 23.7246 36.9301 23.5969 37.1501C23.4684 37.3709 23.4017 37.6222 23.404 37.8776V39.8461C23.404 40.1135 23.4683 40.274 23.5969 40.3489C23.6849 40.385 23.7809 40.3971 23.875 40.3839C23.9692 40.3707 24.0582 40.3328 24.1328 40.274L24.6259 39.9851C24.8437 39.859 25.0247 39.6783 25.1511 39.4609ZM25.0118 38.9153C25.0194 39.0652 24.9841 39.2143 24.9101 39.345C24.8361 39.4757 24.7264 39.5827 24.5937 39.6535L24.1972 39.8781C23.9185 40.0386 23.7899 39.953 23.7899 39.6214V37.685C23.782 37.5377 23.8161 37.3912 23.8882 37.2625C23.9602 37.1338 24.0674 37.028 24.1972 36.9575L24.5937 36.7222C24.8724 36.5367 25.0118 36.6223 25.0118 36.9789V38.9153Z" fill="#F0F2FF"/>
<path d="M27.6592 38.0059C27.7878 37.7851 27.8544 37.5338 27.8522 37.2784V35.3099C27.8522 35.0425 27.7879 34.882 27.6592 34.8071C27.5306 34.7322 27.3591 34.8071 27.134 34.8927L26.641 35.1709C26.4232 35.297 26.2422 35.4777 26.1158 35.6951C25.979 35.9168 25.9083 36.1729 25.9121 36.4333V38.4017C25.9121 38.6585 25.9764 38.8297 26.1158 38.9046C26.2551 38.9795 26.4159 38.9046 26.641 38.819L27.1555 38.5836C27.3739 38.4415 27.5483 38.2414 27.6592 38.0059ZM27.4985 37.471C27.5051 37.6181 27.4704 37.764 27.3985 37.8926C27.3265 38.0211 27.2201 38.127 27.0912 38.1985L26.6839 38.4338C26.4159 38.5943 26.2766 38.5087 26.2766 38.1771V36.2407C26.2687 36.0934 26.3028 35.9469 26.3749 35.8182C26.447 35.6895 26.5541 35.5837 26.6839 35.5132L27.0912 35.2778C27.3591 35.1174 27.4985 35.203 27.4985 35.5346V37.471Z" fill="#F0F2FF"/>
<path d="M33.7795 34.4863C33.9066 34.2649 33.9732 34.014 33.9724 33.7588V31.7903C33.9724 31.5229 33.9081 31.3517 33.7795 31.2875C33.6915 31.2514 33.5956 31.2393 33.5014 31.2525C33.4072 31.2656 33.3182 31.3036 33.2436 31.3624L32.7505 31.6513C32.5307 31.7779 32.3484 31.9605 32.2222 32.1804C32.0961 32.4003 32.0306 32.6496 32.0324 32.903V34.8714C32.0324 35.1425 32.0967 35.3136 32.2253 35.3849C32.3131 35.4155 32.4071 35.4237 32.4988 35.4088C32.5905 35.3938 32.6771 35.3562 32.7505 35.2994L33.2436 35.0105C33.4666 34.8875 33.6518 34.7063 33.7795 34.4863ZM33.5866 33.9407C33.5942 34.0906 33.5589 34.2396 33.4849 34.3703C33.4109 34.501 33.3012 34.608 33.1685 34.6789L32.772 34.9142C32.4933 35.064 32.3539 34.9784 32.3539 34.6468V32.7211C32.3463 32.5711 32.3816 32.4221 32.4556 32.2914C32.5296 32.1607 32.6393 32.0537 32.772 31.9829L33.1685 31.7582C33.4472 31.5942 33.5866 31.6798 33.5866 32.015V33.9407Z" fill="#F0F2FF"/>
<path d="M36.2876 33.042C36.4147 32.8206 36.4812 32.5697 36.4805 32.3145V30.346C36.4805 30.0821 36.4162 29.9109 36.2876 29.8325C36.2003 29.7988 36.1056 29.7889 36.0133 29.804C35.921 29.819 35.8343 29.8584 35.7624 29.9181L35.2693 30.2069C35.0463 30.3299 34.8611 30.5111 34.7334 30.7311C34.6048 30.952 34.5382 31.2032 34.5405 31.4586V33.4271C34.5405 33.6946 34.6048 33.855 34.7334 33.9299C34.8213 33.966 34.9173 33.9781 35.0115 33.965C35.1057 33.9518 35.1947 33.9139 35.2693 33.855L35.7624 33.5662C35.9802 33.44 36.1612 33.2593 36.2876 33.042ZM36.1268 32.4964C36.1352 32.6439 36.1027 32.7909 36.0327 32.9212C35.9627 33.0515 35.858 33.1599 35.7302 33.2345L35.3229 33.4592C35.0442 33.6197 34.9156 33.5341 34.9156 33.2024V31.2661C34.9078 31.1188 34.9418 30.9723 35.0139 30.8436C35.086 30.7148 35.1931 30.6091 35.3229 30.5386L35.7302 30.3032C35.9982 30.1534 36.1375 30.239 36.1375 30.56L36.1268 32.4964Z" fill="#F0F2FF"/>
<path d="M38.7957 31.587C38.9276 31.367 38.9979 31.1158 38.9994 30.8595V28.891C39.0123 28.7967 39.0003 28.7007 38.9646 28.6125C38.9289 28.5243 38.8707 28.447 38.7957 28.3882C38.6671 28.3133 38.4956 28.3882 38.2705 28.4738L37.7775 28.7519C37.5575 28.8847 37.3752 29.0714 37.2477 29.2941C37.1201 29.5169 37.0516 29.7685 37.0486 30.025V31.9935C37.0357 32.0878 37.0477 32.1838 37.0834 32.272C37.1191 32.3602 37.1774 32.4375 37.2523 32.4963C37.3809 32.5712 37.5524 32.4963 37.7775 32.4107L38.2705 32.1326C38.4924 32.0022 38.6741 31.8135 38.7957 31.587ZM38.635 31.052C38.6441 31.1995 38.6106 31.3465 38.5384 31.4755C38.4662 31.6045 38.3583 31.71 38.2277 31.7795L37.8204 32.0149C37.5524 32.1754 37.4131 32.0898 37.4131 31.7581V29.8217C37.4065 29.6747 37.4411 29.5287 37.513 29.4002C37.585 29.2717 37.6914 29.1657 37.8204 29.0943L38.2277 28.8589C38.5063 28.6984 38.635 28.784 38.635 29.1157V31.052Z" fill="#F0F2FF"/>
<path d="M41.3145 30.1429C41.4431 29.9221 41.5097 29.6708 41.5075 29.4154V27.4469C41.5075 27.1794 41.4431 27.019 41.3145 26.9441C41.1859 26.8692 41.0037 26.9441 40.7786 27.0297L40.2855 27.3078C40.0641 27.4354 39.8808 27.6197 39.7545 27.8416C39.6283 28.0635 39.5637 28.315 39.5674 28.5702V30.5387C39.5674 30.7955 39.6317 30.9666 39.7603 31.0415C39.889 31.1164 40.0605 31.0415 40.2855 30.9559L40.7786 30.6778C41.0023 30.551 41.1875 30.3662 41.3145 30.1429ZM41.1537 29.608C41.1593 29.7561 41.1231 29.9029 41.0492 30.0315C40.9753 30.1601 40.8667 30.2654 40.7357 30.3354L40.3284 30.5708C40.0605 30.7313 39.9211 30.635 39.9211 30.314V28.3777C39.9133 28.2304 39.9474 28.0839 40.0194 27.9552C40.0915 27.8264 40.1986 27.7207 40.3284 27.6502L40.7357 27.4148C41.0144 27.2579 41.1537 27.3435 41.1537 27.6716V29.608Z" fill="#F0F2FF"/>
<path d="M47.4241 26.6231C47.5512 26.4017 47.6177 26.1508 47.617 25.8956V23.9272C47.617 23.6633 47.5527 23.4921 47.4241 23.4136C47.3363 23.3831 47.2423 23.3749 47.1506 23.3898C47.0588 23.4048 46.9723 23.4424 46.8988 23.4992L46.4058 23.7881C46.185 23.9139 46.0004 24.0945 45.8699 24.3123C45.7413 24.5331 45.6747 24.7844 45.6769 25.0398V27.0083C45.6769 27.2757 45.7412 27.4362 45.8699 27.5111C45.9578 27.5472 46.0538 27.5593 46.148 27.5461C46.2422 27.533 46.3312 27.495 46.4058 27.4362L46.8988 27.1473C47.1189 27.0241 47.3006 26.8427 47.4241 26.6231ZM47.2633 26.0775C47.2706 26.2262 47.2365 26.3739 47.1645 26.5043C47.0926 26.6346 46.9858 26.7425 46.856 26.8157L46.4487 27.0404C46.1807 27.2008 46.0414 27.1153 46.0414 26.7836V24.8472C46.036 24.7004 46.0711 24.5548 46.143 24.4266C46.2148 24.2983 46.3205 24.1921 46.4487 24.1197L46.856 23.8844C47.1239 23.7346 47.2633 23.8202 47.2633 24.1411V26.0775Z" fill="#F0F2FF"/>
<path d="M49.9323 25.1787C50.0691 24.957 50.1397 24.7009 50.1359 24.4405V22.4721C50.1359 22.2153 50.0716 22.0441 49.9323 21.9692C49.7929 21.8943 49.6321 21.9692 49.407 22.0548L48.914 22.333C48.6932 22.464 48.5107 22.6504 48.3847 22.8738C48.2587 23.0972 48.1936 23.3497 48.1959 23.6061V25.5746C48.1959 25.8313 48.2602 26.0025 48.3888 26.0774C48.5174 26.1523 48.6889 26.1309 48.914 25.9918L49.407 25.7136C49.6262 25.5845 49.8074 25.4 49.9323 25.1787ZM49.7822 24.6759C49.7904 24.8245 49.7553 24.9723 49.6811 25.1014C49.6069 25.2305 49.4968 25.3354 49.3642 25.4034L48.9569 25.6387C48.6889 25.7992 48.5496 25.7136 48.5496 25.382V23.4028C48.543 23.2557 48.5776 23.1097 48.6496 22.9812C48.7215 22.8527 48.8279 22.7468 48.9569 22.6753L49.3642 22.44C49.6429 22.283 49.7822 22.3686 49.7822 22.6967V24.6759Z" fill="#F0F2FF"/>
<path d="M52.451 23.7239C52.5796 23.5031 52.6462 23.2518 52.644 22.9964V21.028C52.644 20.7605 52.5796 20.6 52.451 20.5251C52.3224 20.4503 52.1402 20.5251 51.9151 20.6107L51.422 20.8889C51.2068 21.0183 51.0265 21.1983 50.8968 21.4131C50.7684 21.6378 50.7018 21.8925 50.7039 22.1513V24.1198C50.7039 24.3765 50.7682 24.5477 50.8968 24.6226C50.9841 24.6563 51.0788 24.6661 51.1711 24.6511C51.2634 24.6361 51.3501 24.5967 51.422 24.537L51.9151 24.2588C52.1388 24.1321 52.324 23.9472 52.451 23.7239ZM52.2902 23.189C52.2958 23.3372 52.2596 23.4839 52.1857 23.6125C52.1118 23.7412 52.0032 23.8465 51.8722 23.9165L51.4756 24.1519C51.197 24.3088 51.0576 24.2232 51.0576 23.8951V21.9587C51.0494 21.8101 51.0846 21.6623 51.1587 21.5332C51.2329 21.4041 51.343 21.2992 51.4756 21.2312L51.8722 20.9959C52.1509 20.839 52.2902 20.9245 52.2902 21.2526V23.189Z" fill="#F0F2FF"/>
<path d="M55.1521 21.5521V19.5836C55.1521 19.3161 55.0878 19.145 54.9592 19.0808C54.8731 19.0445 54.7787 19.0323 54.6861 19.0454C54.5936 19.0586 54.5064 19.0967 54.4339 19.1557L53.9409 19.4445C53.7179 19.5675 53.5327 19.7487 53.405 19.9687C53.2779 20.1902 53.2113 20.441 53.212 20.6962V22.6647C53.212 22.9357 53.2764 23.1069 53.405 23.1782C53.5336 23.2531 53.7158 23.1782 53.9409 23.0926L54.4339 22.8038C54.6538 22.6771 54.8361 22.4945 54.9622 22.2747C55.0884 22.0548 55.1539 21.8055 55.1521 21.5521ZM54.7984 21.734C54.806 21.8839 54.7707 22.0329 54.6967 22.1636C54.6227 22.2943 54.513 22.4013 54.3804 22.4721L53.9838 22.7075C53.7051 22.8573 53.5765 22.7717 53.5765 22.4507V20.5144C53.5678 20.3655 53.6015 20.2173 53.6735 20.0867C53.7456 19.9561 53.8531 19.8484 53.9838 19.7762L54.3804 19.5515C54.659 19.3875 54.7984 19.4731 54.7984 19.8083V21.734Z" fill="#F0F2FF"/>
<path d="M4.64661 37.2358V34.4114C4.64792 34.3869 4.6569 34.3634 4.67227 34.3442C4.68765 34.325 4.70866 34.3111 4.73235 34.3044L5.72917 33.7374C5.79285 33.6861 5.86832 33.6514 5.94878 33.6365C6.02924 33.6215 6.11216 33.6268 6.19007 33.6519C6.25389 33.7042 6.30318 33.772 6.33321 33.8488C6.36324 33.9256 6.373 34.0088 6.36157 34.0905V35.631C6.36094 35.8528 6.30179 36.0705 6.19007 36.2622C6.08167 36.4522 5.92196 36.6079 5.72917 36.7116L4.73235 37.2893C4.73235 37.2893 4.64661 37.2893 4.64661 37.2358ZM5.08606 36.6688L5.65414 36.3478C5.74489 36.2969 5.81988 36.2221 5.87092 36.1315C5.92195 36.041 5.94708 35.9381 5.94354 35.8343V34.3044C5.94354 34.0798 5.84708 34.0156 5.65414 34.1226L5.08606 34.4542C5.08038 34.4659 5.07742 34.4787 5.07742 34.4917C5.07742 34.5046 5.08038 34.5174 5.08606 34.5291V36.6688C5.08606 36.6688 5.07535 36.6902 5.1075 36.6688H5.08606Z" fill="#F0F2FF"/>
<path d="M8.25879 35.2458L6.97257 35.984H6.90826V33.1275C6.90571 33.1037 6.9105 33.0797 6.92199 33.0587C6.93348 33.0376 6.95113 33.0206 6.97257 33.0099L8.25879 32.261H8.3231V32.4963C8.32566 32.5202 8.32087 32.5442 8.30938 32.5652C8.29789 32.5863 8.28024 32.6033 8.25879 32.614L7.34772 33.1382C7.34772 33.1382 7.34772 33.1382 7.34772 33.2131V34.0048L8.11945 33.5662H8.19448V33.8015C8.19618 33.8266 8.18982 33.8515 8.17632 33.8727C8.16282 33.8938 8.14289 33.9102 8.11945 33.9192L7.34772 34.3685C7.34772 34.3685 7.34772 34.3685 7.34772 34.4434V35.3742L8.25879 34.8393H8.3231V35.0746C8.33199 35.0897 8.33738 35.1066 8.33888 35.1241C8.34039 35.1415 8.33798 35.1591 8.33181 35.1755C8.32565 35.1919 8.3159 35.2067 8.30326 35.2189C8.29063 35.2311 8.27544 35.2403 8.25879 35.2458Z" fill="#F0F2FF"/>
<path d="M8.83752 34.8393V32.0042C8.83835 31.981 8.84459 31.9582 8.85575 31.9378C8.86692 31.9174 8.88269 31.8998 8.90184 31.8865L9.85578 31.3409C9.92153 31.2895 9.99882 31.2549 10.081 31.24C10.1632 31.2251 10.2477 31.2303 10.3274 31.2553C10.4346 31.3195 10.4882 31.4586 10.4882 31.694V31.9186C10.488 32.0534 10.4581 32.1866 10.4007 32.3086C10.3433 32.4306 10.2597 32.5385 10.1559 32.6247C10.1942 32.5999 10.2389 32.5866 10.2845 32.5866C10.3302 32.5866 10.3749 32.5999 10.4131 32.6247C10.454 32.6623 10.485 32.7092 10.5037 32.7613C10.5224 32.8135 10.5281 32.8694 10.5203 32.9243V33.2345C10.5216 33.4518 10.4662 33.6656 10.3596 33.855C10.2423 34.038 10.0846 34.1917 9.89865 34.3044L8.90184 34.8714C8.90184 34.8714 8.83752 34.8928 8.83752 34.8393ZM9.27698 32.9564L9.79147 32.6461C9.88621 32.5981 9.96556 32.5245 10.0205 32.4338C10.0755 32.343 10.1038 32.2387 10.1023 32.1326V31.9186C10.1023 31.694 10.0058 31.6405 9.80219 31.7582L9.27698 32.0684C9.26184 32.071 9.24812 32.0788 9.23829 32.0906C9.22846 32.1024 9.22318 32.1173 9.22339 32.1326V32.935C9.22339 32.935 9.24483 32.9671 9.27698 32.9564ZM9.27698 34.283L9.83434 33.9513C9.92705 33.9046 10.0045 33.8325 10.0577 33.7435C10.1108 33.6544 10.1375 33.5521 10.1345 33.4485V33.1596C10.1345 32.935 10.0273 32.8815 9.82363 33.0099L9.27698 33.3201C9.27698 33.3201 9.22339 33.3201 9.22339 33.395V34.3044C9.22339 34.3044 9.24483 34.3044 9.27698 34.3044V34.283Z" fill="#F0F2FF"/>
<path d="M11.4742 30.4958V33.3202C11.4744 33.3449 11.4675 33.3692 11.4541 33.3901C11.4408 33.4109 11.4218 33.4275 11.3992 33.4378L11.1527 33.5876C11.0991 33.5876 11.0777 33.5876 11.0777 33.5876V30.7205C11.076 30.6954 11.0823 30.6705 11.0958 30.6493C11.1093 30.6282 11.1292 30.6119 11.1527 30.6028L11.3992 30.453C11.3992 30.453 11.4742 30.4423 11.4742 30.4958Z" fill="#F0F2FF"/>
<path d="M12.7927 32.6356L12.5354 32.7854C12.4818 32.7854 12.4604 32.7854 12.4604 32.7854V30.3248L11.9566 30.6136H11.8816V30.3783C11.8828 30.3524 11.8903 30.3273 11.9033 30.3049C11.9164 30.2825 11.9347 30.2637 11.9566 30.2499L13.4465 29.394H13.5215V29.6294C13.5225 29.6557 13.5159 29.6817 13.5026 29.7044C13.4893 29.7272 13.4699 29.7457 13.4465 29.7578L12.8998 30.0252C12.8942 30.0369 12.8912 30.0497 12.8912 30.0627C12.8912 30.0757 12.8942 30.0885 12.8998 30.1001V32.5607C12.8914 32.5824 12.8767 32.6011 12.8576 32.6144C12.8385 32.6277 12.8159 32.6351 12.7927 32.6356Z" fill="#F0F2FF"/>
<path d="M15.8367 30.881L15.3651 31.1484C15.3019 31.2007 15.2258 31.2353 15.1448 31.2484C15.0638 31.2616 14.9807 31.2529 14.9042 31.2233C14.797 31.1591 14.7434 31.02 14.7434 30.7954V29.2441C14.7406 29.0267 14.7961 28.8125 14.9042 28.6236C15.0149 28.4327 15.1738 28.2741 15.3651 28.1636L15.8367 27.8962C16.0296 27.7892 16.1797 27.7571 16.2976 27.8213C16.4155 27.8855 16.4583 28.0245 16.4583 28.2599V28.4846C16.46 28.5096 16.4537 28.5345 16.4402 28.5557C16.4267 28.5769 16.4068 28.5932 16.3833 28.6022L16.1368 28.752H16.0618V28.5487C16.0618 28.3134 15.9653 28.2599 15.7724 28.3669L15.4294 28.5701C15.3378 28.6201 15.2621 28.6947 15.211 28.7855C15.1598 28.8763 15.1352 28.9796 15.14 29.0837V30.5921C15.14 30.8168 15.2364 30.881 15.4294 30.7633L15.7724 30.56C15.8639 30.5129 15.9399 30.4403 15.9912 30.3512C16.0426 30.262 16.0671 30.1599 16.0618 30.0572V29.8111C16.0594 29.7846 16.0653 29.758 16.0788 29.735C16.0922 29.712 16.1125 29.6938 16.1368 29.6828L16.3833 29.533C16.4369 29.533 16.4583 29.533 16.4583 29.533V29.7577C16.46 29.9783 16.4046 30.1957 16.2976 30.3889C16.1856 30.5873 16.0276 30.7561 15.8367 30.881Z" fill="#F0F2FF"/>
<path d="M17.1015 30.1535L16.8121 30.3247C16.8121 30.3247 16.7586 30.3247 16.8121 30.2605L17.5089 27.051C17.5282 27 17.5617 26.9555 17.6053 26.9226L18.0126 26.6873C18.0662 26.6873 18.0984 26.6873 18.1091 26.6873L18.8058 29.1158C18.8164 29.1316 18.822 29.1502 18.822 29.1693C18.822 29.1883 18.8164 29.2069 18.8058 29.2227L18.5271 29.3832C18.5271 29.3832 18.5271 29.3832 18.4735 29.3832C18.4199 29.3832 18.4735 29.3832 18.4735 29.3297L18.3235 28.8162L17.4338 29.3297L17.2838 30.0251C17.2704 30.0627 17.2458 30.0953 17.2131 30.1183C17.1805 30.1413 17.1415 30.1536 17.1015 30.1535ZM17.7554 27.2329L17.4017 28.9553L18.1305 28.5381L17.7768 27.2543L17.7554 27.2329Z" fill="#F0F2FF"/>
<path d="M19.4917 28.7734L19.2344 28.9232H19.1701V26.056C19.1675 26.0322 19.1723 26.0082 19.1838 25.9872C19.1953 25.9661 19.213 25.9491 19.2344 25.9383L20.1776 25.3927C20.3706 25.2858 20.5314 25.2537 20.6385 25.3178C20.7024 25.3702 20.7516 25.438 20.7817 25.5148C20.8117 25.5916 20.8215 25.6748 20.81 25.7565V26.1523C20.8139 26.3194 20.7814 26.4853 20.7147 26.6386C20.6481 26.7919 20.549 26.9289 20.4242 27.0403L20.8743 27.8854C20.8743 27.8854 20.8743 27.971 20.8208 28.0138L20.5635 28.1529C20.4992 28.1529 20.4563 28.1529 20.4456 28.1529L20.0169 27.3291L19.6524 27.5645C19.6524 27.5645 19.5988 27.5645 19.5988 27.6394V28.6557C19.599 28.6852 19.588 28.7136 19.5682 28.7354C19.5483 28.7571 19.521 28.7707 19.4917 28.7734ZM19.5988 27.19L20.1133 26.9012C20.2053 26.8508 20.2818 26.7764 20.3346 26.6859C20.3875 26.5955 20.4147 26.4924 20.4134 26.3877V26.0025C20.4134 25.7672 20.3063 25.7137 20.1133 25.8314L19.5988 26.1202C19.5932 26.1319 19.5902 26.1447 19.5902 26.1577C19.5902 26.1706 19.5932 26.1834 19.5988 26.1951V27.1686C19.5988 27.1686 19.5667 27.2114 19.6524 27.19H19.5988Z" fill="#F0F2FF"/>
<path d="M21.346 27.6288V24.8044C21.3451 24.7781 21.3516 24.7521 21.3649 24.7294C21.3782 24.7067 21.3977 24.6882 21.4211 24.6761L22.4072 24.109C22.6001 24.0021 22.7609 23.97 22.8681 24.0342C22.9752 24.0983 23.0396 24.2374 23.0396 24.4728V26.0133C23.0386 26.2317 22.9794 26.4459 22.8681 26.6338C22.7573 26.8247 22.5984 26.9833 22.4072 27.0939L21.4211 27.6609C21.4211 27.6609 21.346 27.6823 21.346 27.6288ZM21.7855 27.0618L22.3536 26.7301C22.446 26.6812 22.5224 26.6067 22.5737 26.5157C22.625 26.4247 22.649 26.3209 22.643 26.2166V24.6761C22.643 24.4514 22.5465 24.3979 22.3536 24.5049L21.7855 24.8365C21.7785 24.8458 21.7748 24.857 21.7748 24.8686C21.7748 24.8802 21.7785 24.8915 21.7855 24.9007V27.0404C21.7855 27.0404 21.7962 27.0725 21.7962 27.0618H21.7855Z" fill="#F0F2FF"/>
<g style="mix-blend-mode:multiply" opacity="0.4">
<path d="M55.2701 41.9431C56.0131 41.4992 56.6416 40.8876 57.1051 40.1575C57.5686 39.4273 57.8542 38.5989 57.939 37.7387V23.6063L49.7822 28.2921V21.0708C49.7822 17.7008 52.5369 13.368 55.9239 11.4423C56.554 11.0704 57.2371 10.7963 57.9497 10.6292V7.55884C57.2452 7.80132 56.5666 8.1131 55.9239 8.48959C50.9076 11.3781 46.8239 17.8078 46.8239 22.8146V30.0252L45.5698 30.742C45.216 30.9654 44.918 31.2666 44.6988 31.6227C44.4796 31.9787 44.3449 32.3801 44.3051 32.7961V48.2658L55.2701 41.9431Z" fill="#50197C"/>
</g>
<path d="M55.0235 27.8854L54.0374 27.3184C53.6634 27.1506 53.3405 26.887 53.1015 26.5545C52.8624 26.2219 52.7157 25.8322 52.6761 25.4248V45.0668C52.6991 45.4731 52.8292 45.8661 53.0531 46.2062C53.2771 46.5462 53.5871 46.8211 53.9516 47.0032L54.927 47.5702C55.9368 48.0815 57.0532 48.3479 58.1855 48.3479C59.3177 48.3479 60.4341 48.0815 61.4439 47.5702V27.9175C60.4458 28.4138 59.3449 28.6694 58.2299 28.6638C57.1148 28.6583 56.0166 28.3916 55.0235 27.8854Z" fill="url(#paint0_linear_52_13200)"/>
<path d="M77.6074 18.5886L61.5296 27.8854C60.5428 28.4171 59.4354 28.686 58.3141 28.6663V48.3405C59.4085 48.3457 60.4873 48.0811 61.4546 47.5702L77.5323 38.2413C77.9013 38.075 78.2197 37.8142 78.455 37.4854C78.6903 37.1566 78.8342 36.7714 78.8722 36.3691V16.7271C78.8396 17.1197 78.7062 17.4974 78.4846 17.8235C78.263 18.1496 77.9609 18.4131 77.6074 18.5886Z" fill="url(#paint1_linear_52_13200)"/>
<path d="M77.5859 14.8334L76.5998 14.2664C75.5921 13.7544 74.4775 13.4875 73.3467 13.4875C72.216 13.4875 71.1013 13.7544 70.0937 14.2664L54.0052 23.606C52.2152 24.6759 52.226 26.3341 54.0052 27.3718L55.0235 27.8853C56.0315 28.4025 57.1485 28.6722 58.2819 28.6722C59.4153 28.6722 60.5323 28.4025 61.5403 27.8853L77.6181 18.5564C79.3973 17.5615 79.3866 15.8712 77.5859 14.8334Z" fill="#F1EDF2"/>
<path d="M56.5134 24.7937V16.1174C56.5134 11.3352 60.2006 5.41908 64.9167 2.74451C67.6928 1.13977 70.4475 0.893707 72.484 2.07052C73.4015 2.64914 74.145 3.46483 74.6356 4.43107C75.1262 5.39731 75.3457 6.47807 75.2708 7.55874V16.3848C75.2708 18.0431 71.3585 18.0965 71.3585 16.3848V7.55874C71.3585 6.94893 71.2514 5.85771 70.5225 5.41908C69.7936 4.98045 68.3788 5.23721 66.8675 6.09307C63.3733 8.09365 60.3828 12.6725 60.3828 16.1174V24.8365C60.3828 26.5268 56.5134 26.698 56.5134 24.7937Z" fill="url(#paint2_linear_52_13200)"/>
<g style="mix-blend-mode:screen">
<path d="M67.1676 2.92645C67.3605 3.2474 68.1108 2.92645 68.368 2.85156C69.7293 2.5841 71.1441 2.38084 72.4518 3.67533C73.1163 4.33862 73.6523 3.8251 73.3521 3.39717C71.4121 0.583525 66.503 1.86732 67.1676 2.92645Z" fill="white"/>
</g>
<path d="M69.322 37.653C66.7067 39.1507 64.5845 38.2521 64.5845 35.6524C64.5845 33.0527 66.7282 29.7041 69.322 28.1636C71.9159 26.623 74.0489 27.5645 74.0489 30.1642C74.0489 32.7638 71.9266 36.1445 69.322 37.653ZM69.322 28.3348C66.8139 29.7897 64.6702 33.042 64.6702 35.5775C64.6702 38.113 66.8139 38.9795 69.322 37.5139C71.8302 36.0482 73.9203 32.8066 73.9203 30.2711C73.9203 27.7356 71.8516 26.8691 69.322 28.3348Z" fill="#EDA722"/>
<path d="M69.0862 30.0251L69.933 29.5437C70.0402 29.4795 70.1259 29.5437 70.1259 29.6185V30.3246C70.1153 30.447 70.0666 30.563 69.9866 30.6563L69.9116 30.7312C69.8799 30.7638 69.8551 30.8023 69.8386 30.8445C69.822 30.8868 69.814 30.9319 69.8151 30.9772V31.3624C69.8131 31.3837 69.8131 31.4052 69.8151 31.4266L70.0187 31.6298C70.0246 31.6433 70.0277 31.6579 70.0277 31.6726C70.0277 31.6873 70.0246 31.7019 70.0187 31.7154V32.7104C70.0311 32.7631 70.0311 32.818 70.0187 32.8708L69.7293 33.3415C69.7153 33.3977 69.7153 33.4565 69.7293 33.5127V35.5347C69.7264 35.5985 69.7071 35.6606 69.6733 35.7149C69.6396 35.7692 69.5924 35.814 69.5364 35.8449L69.0648 36.1231C68.9576 36.1766 68.8719 36.1231 68.8719 36.0375V34.069C68.8578 34.0237 68.8578 33.9753 68.8719 33.93L69.1827 33.3309C69.1909 33.2813 69.1909 33.2307 69.1827 33.1811V32.2289C69.1886 32.2154 69.1916 32.2009 69.1916 32.1861C69.1916 32.1714 69.1886 32.1568 69.1827 32.1433L68.979 31.9615V31.8759L68.8719 30.3781C68.8738 30.3058 68.8946 30.2352 68.9322 30.1733C68.9698 30.1114 69.0229 30.0603 69.0862 30.0251Z" fill="#D88223"/>
<path d="M79.8583 38.8725L79.2473 38.5088L79.8261 38.8297L79.8583 38.8725Z" fill="#505B60"/>
<path d="M79.7297 39.0437L79.6761 38.9474L78.6042 37.2036L77.9933 36.8506L79.0223 38.5837V38.6372H79.108L79.2688 38.7228L79.7297 39.0437Z" fill="#D88223"/>
<path d="M82.6128 20.6321C81.961 21.4957 81.1451 22.2227 80.2119 22.7717C79.5726 23.1791 78.8265 23.3876 78.0682 23.3708V24.8044C78.0657 24.8343 78.0701 24.8644 78.0813 24.8923C78.0925 24.9201 78.11 24.945 78.1325 24.9649L78.7971 25.4142C78.8451 25.4515 78.8823 25.5009 78.9049 25.5573C78.9275 25.6137 78.9347 25.6751 78.9257 25.7352C78.9257 26.345 78.9257 28.0032 78.9257 28.3134C79.0066 28.612 79.1069 28.9051 79.2258 29.1907C79.2797 29.3467 79.2797 29.5162 79.2258 29.6721C79.1293 30.0252 78.9686 30.6564 78.8721 31.0308C78.8391 31.1169 78.8391 31.2122 78.8721 31.2983C78.8721 31.4052 79.0007 31.555 79.0543 31.6406C79.1079 31.7262 78.8078 32.9886 78.8507 33.1812C78.8935 33.3737 79.1615 34.1226 79.2794 34.465C79.3269 34.5963 79.3269 34.7401 79.2794 34.8715C79.1293 35.3315 78.8078 36.2837 78.6792 36.6581C78.6649 36.7503 78.6649 36.8441 78.6792 36.9363C78.6596 37.0099 78.6596 37.0873 78.6792 37.1609L79.676 38.9475C79.7014 38.9844 79.7342 39.0156 79.7723 39.039C79.8105 39.0625 79.8531 39.0777 79.8976 39.0838C79.942 39.0898 79.9871 39.0865 80.0302 39.0741C80.0733 39.0617 80.1132 39.0405 80.1476 39.0117C80.2396 38.9525 80.3226 38.8805 80.3941 38.7978V25.3821L81.2623 23.756V37.0967L81.7232 36.1446C81.8018 35.9327 81.8346 35.7067 81.8197 35.4813V24.1732C81.8358 23.7078 81.9724 23.2544 82.2163 22.8573L82.3556 22.6327C82.499 22.3925 82.58 22.1204 82.5914 21.841L82.6128 20.6321Z" fill="#FFC522"/>
<path d="M81.2195 23.7559V37.0966L80.5121 38.5837C80.471 38.6764 80.4168 38.7629 80.3513 38.8404V25.382L81.2195 23.7559Z" fill="#F4B728"/>
<path d="M79.9869 25.3928V38.8513L78.915 37.0753C78.8848 37.004 78.8666 36.928 78.8615 36.8507C78.8699 36.7564 78.8879 36.6632 78.915 36.5725L79.526 34.7859C79.5735 34.6545 79.5735 34.5107 79.526 34.3794C79.3974 34.037 79.1294 33.3096 79.0865 33.0849C79.0437 32.8602 79.3759 31.7048 79.2902 31.555L79.108 31.202C79.0802 31.1186 79.0802 31.0286 79.108 30.9452C79.2152 30.5601 79.3759 29.9396 79.4724 29.5758C79.5154 29.4219 79.5154 29.2591 79.4724 29.1051C79.3502 28.8207 79.2499 28.5275 79.1723 28.2279C79.1723 28.0353 79.1723 27.3613 79.1723 26.7194L79.9869 25.3928Z" fill="#F4B728"/>
<path d="M79.2366 34.9143C79.2841 34.7829 79.2841 34.6391 79.2366 34.5077C79.1187 34.1654 78.8507 33.4379 78.8079 33.224C78.765 33.01 79.0972 31.8332 79.0115 31.6834C78.9257 31.5336 78.8829 31.448 78.8293 31.3411C78.7963 31.2549 78.7963 31.1597 78.8293 31.0736C78.9258 30.6992 79.0972 30.068 79.183 29.7149C79.2369 29.5589 79.2369 29.3895 79.183 29.2335C79.0641 28.9479 78.9638 28.6548 78.8829 28.3562C78.8829 28.046 78.8829 26.3878 78.8829 25.7779C78.8919 25.7179 78.8847 25.6565 78.8621 25.6001C78.8395 25.5437 78.8023 25.4943 78.7543 25.457L78.0897 25.0077L77.5323 24.676L78.1969 25.1254C78.2449 25.1626 78.2822 25.212 78.3048 25.2684C78.3274 25.3248 78.3345 25.3862 78.3255 25.4463C78.3255 26.0561 78.3255 27.7143 78.3255 28.0246C78.4081 28.3227 78.5083 28.6156 78.6256 28.9018C78.6795 29.0578 78.6795 29.2273 78.6256 29.3833C78.5399 29.7363 78.3684 30.3675 78.2719 30.742C78.2389 30.8281 78.2389 30.9233 78.2719 31.0094C78.2719 31.1164 78.4005 31.2662 78.4541 31.3518C78.5077 31.4373 78.2076 32.6997 78.2505 32.8923C78.2934 33.0849 78.5613 33.8338 78.6792 34.1761C78.7267 34.3075 78.7267 34.4513 78.6792 34.5826L78.079 36.3692C78.0647 36.4614 78.0647 36.5552 78.079 36.6474C78.0604 36.7211 78.0604 36.7983 78.079 36.8721L78.6899 37.2251C78.6704 37.1515 78.6704 37.0741 78.6899 37.0004C78.6757 36.9083 78.6757 36.8145 78.6899 36.7223C78.765 36.3265 79.0865 35.3743 79.2366 34.9143Z" fill="#D88223"/>
<path d="M78.0683 24.8472V23.4136L77.4574 23.0605V24.4941C77.4523 24.5284 77.4566 24.5633 77.4699 24.5953C77.4831 24.6273 77.5047 24.6552 77.5324 24.676L78.1433 25.029C78.1156 25.0082 78.094 24.9804 78.0808 24.9484C78.0676 24.9164 78.0633 24.8814 78.0683 24.8472Z" fill="#D88223"/>
<path d="M81.3481 14.7373C81.3613 14.5976 81.3375 14.4569 81.2792 14.3293C81.2209 14.2016 81.1301 14.0915 81.0158 14.0098L80.4049 13.6567C80.5192 13.7384 80.61 13.8486 80.6683 13.9762C80.7266 14.1039 80.7503 14.2446 80.7372 14.3842C80.7088 14.9258 80.5058 15.4436 80.1584 15.8606C79.9993 16.0495 79.8111 16.212 79.601 16.342C79.494 16.4046 79.3785 16.4515 79.258 16.4811C79.1017 16.5158 78.938 16.493 78.7971 16.4169L79.4081 16.7699C79.5489 16.8461 79.7126 16.8689 79.869 16.8341C79.9894 16.8045 80.1049 16.7577 80.212 16.6951C80.4242 16.5679 80.6128 16.405 80.7693 16.2136C81.1167 15.7967 81.3198 15.2788 81.3481 14.7373Z" fill="#D88223"/>
<path d="M82.7522 11.9557C81.1659 11.0356 78.9365 12.3194 77.393 14.1488C74.842 17.2513 74.3382 21.5627 76.4176 22.7716L77.0286 23.1247C73.813 20.1399 79.5796 11.3566 83.331 12.3194L82.7522 11.9557Z" fill="#D88223"/>
<path d="M80.2012 12.619C78.9106 13.4554 77.836 14.5841 77.0649 15.9133C76.2938 17.2425 75.848 18.7346 75.7638 20.2683C75.7638 22.1833 76.6963 23.328 78.0683 23.4136C78.8261 23.4271 79.5714 23.2189 80.212 22.8145C81.1397 22.2621 81.9514 21.5355 82.6022 20.6748C83.8424 19.1129 84.5553 17.1992 84.6387 15.208C84.6494 12.3515 82.6665 11.2068 80.2012 12.619ZM80.2012 14.0847C80.8229 13.7316 81.3374 14.0205 81.3374 14.7373C81.3153 15.1297 81.201 15.5114 81.0036 15.8516C80.8062 16.1917 80.5313 16.4806 80.2012 16.695C79.5689 17.0588 79.0651 16.7592 79.0651 16.0424C79.0875 15.6488 79.2032 15.2662 79.4025 14.9258C79.6019 14.5855 79.8793 14.2972 80.212 14.0847H80.2012Z" fill="#FFC522"/>
<path d="M79.9869 25.3928V38.8513L79.7618 38.4554V25.8101L79.9869 25.3928Z" fill="#D88223"/>
<path d="M81.0159 37.5245L81.2302 37.0966L81.2195 23.7559L81.0159 24.141V37.5245Z" fill="#D88223"/>
<defs>
<linearGradient id="paint0_linear_52_13200" x1="52.6761" y1="36.9041" x2="60.9401" y2="36.9041" gradientUnits="userSpaceOnUse">
<stop stop-color="#D88223"/>
<stop offset="0.42" stop-color="#E79C23"/>
<stop offset="1" stop-color="#FFC522"/>
</linearGradient>
<linearGradient id="paint1_linear_52_13200" x1="56.8885" y1="32.5284" x2="63.2339" y2="32.5284" gradientUnits="userSpaceOnUse">
<stop stop-color="#F3B022"/>
<stop offset="1" stop-color="#FFC522"/>
</linearGradient>
<linearGradient id="paint2_linear_52_13200" x1="63.727" y1="29.2548" x2="68.7141" y2="-1.77312" gradientUnits="userSpaceOnUse">
<stop stop-color="#C0B9C8"/>
<stop offset="1" stop-color="#E0DBE1"/>
</linearGradient>
</defs>
</svg>
