<svg width="34" height="35" viewBox="0 0 34 35" fill="none" xmlns="http://www.w3.org/2000/svg">
<rect y="0.533203" width="34" height="34" rx="5" fill="#181A36"/>
<path fill-rule="evenodd" clip-rule="evenodd" d="M18.8359 9.57436C17.098 9.83973 16.0091 10.8943 15.6837 12.6275C15.6396 12.862 15.6237 13.252 15.6109 14.4143L15.5944 15.9012H14.2972H13V17.4129V18.9246H14.3008H15.6016V22.7289V26.5332H17.2188H18.8359V22.7289V18.9246H20.084C20.7704 18.9246 21.332 18.916 21.332 18.9055C21.332 18.8949 21.419 18.2308 21.5254 17.4295C21.6317 16.6283 21.7188 15.9566 21.7188 15.9369C21.7188 15.912 21.2828 15.9012 20.2755 15.9012H18.8322L18.8437 14.5638C18.8538 13.3799 18.8622 13.2094 18.9173 13.077C19.0548 12.7463 19.2626 12.5607 19.6356 12.4354C19.8185 12.374 19.9415 12.3662 20.9189 12.3539L22 12.3403V10.9965C22 9.95116 21.9902 9.64961 21.9561 9.63868C21.8395 9.60133 20.9049 9.55107 20.084 9.53794C19.3711 9.52655 19.0964 9.53459 18.8359 9.57436Z" fill="#282A4F"/>
</svg>
