<svg width="11" height="11" viewBox="0 0 11 11" fill="none" xmlns="http://www.w3.org/2000/svg">
<path fill-rule="evenodd" clip-rule="evenodd" d="M4.98185 0.0222909C3.93456 0.115372 2.85259 0.558599 2.02067 1.23529C1.77613 1.43421 1.38896 1.82441 1.19393 2.06855C0.700794 2.6858 0.296686 3.52073 0.129087 4.26855C0.0238381 4.73827 0 4.96662 0 5.50547C0 6.04431 0.0238381 6.27266 0.129087 6.74239C0.300343 7.5065 0.714993 8.35338 1.22452 8.9796C1.42347 9.2241 1.81372 9.61123 2.05789 9.80623C2.67523 10.2993 3.51027 10.7034 4.25818 10.8709C4.72798 10.9762 4.95635 11 5.49527 11C6.03419 11 6.26257 10.9762 6.73236 10.8709C7.29468 10.7449 8.02994 10.4308 8.51312 10.1101C9.35111 9.55379 9.99472 8.8219 10.4342 7.92553C10.79 7.19968 10.9645 6.50918 10.9959 5.70273C11.046 4.41758 10.6359 3.15962 9.82368 2.10662C9.6422 1.87137 9.12985 1.35909 8.89457 1.17764C7.75796 0.301104 6.38991 -0.102842 4.98185 0.0222909ZM5.30164 1.47874V2.57181L4.8147 2.5987C4.18142 2.6337 3.59715 2.70204 3.02456 2.80812C2.92587 2.82638 2.84203 2.83817 2.83824 2.8343C2.82592 2.82173 2.97467 2.47107 3.08588 2.25053C3.52591 1.37789 4.09306 0.787117 4.74807 0.519103C4.89869 0.457472 5.15297 0.389667 5.24247 0.38728L5.30164 0.385688V1.47874ZM5.92556 0.419009C6.58105 0.57228 7.20144 1.07234 7.6668 1.82258C7.84399 2.10821 8.17936 2.80668 8.15249 2.8341C8.14881 2.83787 8.03592 2.82171 7.90165 2.79818C7.25062 2.68417 6.81842 2.63422 6.17584 2.5987L5.6889 2.57181V1.47874V0.385688L5.73731 0.38601C5.76394 0.386182 5.84865 0.401047 5.92556 0.419009ZM3.66434 0.836142C3.43267 1.07316 3.19801 1.36404 3.02127 1.63336C2.85886 1.88084 2.57512 2.45423 2.48368 2.71977L2.41699 2.91346L1.68498 3.0393C1.28238 3.10851 0.947695 3.15986 0.941262 3.15342C0.926202 3.13836 1.03412 2.94747 1.20768 2.68219C1.68928 1.94604 2.38414 1.32695 3.19614 0.91053C3.32903 0.842381 3.79515 0.64699 3.82936 0.645097C3.84201 0.644409 3.76774 0.730369 3.66434 0.836142ZM7.40269 0.737662C8.37383 1.12791 9.21632 1.81619 9.78286 2.68219C9.95642 2.94747 10.0643 3.13836 10.0493 3.15342C10.0428 3.15986 9.70817 3.10851 9.30556 3.0393L8.57355 2.91346L8.50686 2.71977C8.41542 2.45423 8.13169 1.88084 7.96927 1.63336C7.79253 1.36404 7.55787 1.07316 7.3262 0.836142C7.2228 0.730369 7.14516 0.643828 7.15368 0.643828C7.1622 0.643828 7.27425 0.686055 7.40269 0.737662ZM5.30164 4.12872V5.31186H3.83796H2.3743L2.387 5.08061C2.41546 4.56209 2.51253 3.93234 2.63446 3.47515C2.6688 3.3464 2.69965 3.239 2.703 3.23646C2.70638 3.23394 2.92213 3.1966 3.18246 3.15349C3.91298 3.03251 4.615 2.95928 5.14566 2.9487L5.30164 2.94558V4.12872ZM6.23298 2.96801C6.71917 2.99748 7.22605 3.05718 7.80809 3.15353C8.06841 3.19662 8.28416 3.23394 8.28754 3.23646C8.29089 3.239 8.32175 3.3464 8.35608 3.47515C8.47801 3.93234 8.57508 4.56209 8.60354 5.08061L8.61624 5.31186H7.15258H5.6889V4.12872V2.94558H5.7758C5.82358 2.94558 6.0293 2.95569 6.23298 2.96801ZM2.2896 3.33427C2.2896 3.34692 2.26606 3.45097 2.2373 3.56552C2.13233 3.98332 2.05242 4.53994 2.01974 5.08061L2.00578 5.31186H1.17913H0.352473L0.362305 5.26346C0.367705 5.23685 0.377839 5.13278 0.384831 5.03221C0.410154 4.66821 0.509852 4.20584 0.648535 3.80934C0.691349 3.68691 0.736874 3.58273 0.749696 3.57783C0.778913 3.5666 2.20064 3.3164 2.25195 3.31345C2.27267 3.31224 2.2896 3.32162 2.2896 3.33427ZM9.48254 3.44187C9.8978 3.5137 10.2437 3.57632 10.2513 3.58101C10.2589 3.5857 10.3 3.68906 10.3425 3.81073C10.4807 4.20586 10.5804 4.66871 10.6057 5.03221C10.6127 5.13278 10.6228 5.23683 10.6282 5.26346L10.6381 5.31186H9.81141H8.98476L8.9708 5.08061C8.93812 4.53994 8.85821 3.98332 8.75324 3.56552C8.69806 3.34574 8.69276 3.31128 8.71426 3.31128C8.72157 3.31128 9.06729 3.37005 9.48254 3.44187ZM2.01974 5.93032C2.05266 6.47515 2.13151 7.02152 2.24023 7.4584C2.27052 7.58007 2.29038 7.68456 2.28437 7.69056C2.27374 7.70116 0.766801 7.44698 0.739197 7.42992C0.731603 7.42523 0.690574 7.32187 0.64804 7.2002C0.509852 6.80507 0.410111 6.34223 0.384831 5.97872C0.377839 5.87816 0.367705 5.7741 0.362305 5.74747L0.352473 5.69907H1.17913H2.00578L2.01974 5.93032ZM5.30164 6.88221V8.06536H5.21474C5.01584 8.06536 4.36223 8.01756 4.02152 7.9781C3.71475 7.94259 2.72286 7.78938 2.703 7.77448C2.69965 7.77194 2.6688 7.66453 2.63446 7.53578C2.51253 7.07859 2.41546 6.44884 2.387 5.93032L2.3743 5.69907H3.83796H5.30164V6.88221ZM8.60354 5.93032C8.57508 6.44884 8.47801 7.07859 8.35608 7.53578C8.32175 7.66453 8.29089 7.77194 8.28754 7.77448C8.26768 7.78938 7.27579 7.94259 6.96902 7.9781C6.62831 8.01756 5.9747 8.06536 5.7758 8.06536H5.6889V6.88221V5.69907H7.15258H8.61624L8.60354 5.93032ZM10.6282 5.74747C10.6228 5.7741 10.6127 5.87816 10.6057 5.97872C10.5804 6.34223 10.4807 6.80507 10.3425 7.2002C10.3 7.32187 10.2589 7.42523 10.2513 7.42992C10.2237 7.44698 8.7168 7.70116 8.70617 7.69056C8.70017 7.68456 8.72002 7.58007 8.75032 7.4584C8.85903 7.02152 8.93788 6.47515 8.9708 5.93032L8.98476 5.69907H9.81141H10.6381L10.6282 5.74747ZM1.69173 7.97333L2.41699 8.09747L2.48368 8.29116C2.57512 8.5567 2.85886 9.1301 3.02127 9.37757C3.19801 9.64689 3.43267 9.93778 3.66434 10.1748C3.76774 10.2806 3.84538 10.3671 3.83686 10.3671C3.80732 10.3671 3.35369 10.1791 3.21819 10.1107C2.47052 9.73333 1.80595 9.16925 1.32532 8.50398C1.20856 8.34241 0.934184 7.89559 0.934184 7.86706C0.934184 7.84273 0.903848 7.83847 1.69173 7.97333ZM10.0564 7.86706C10.0564 7.89559 9.78198 8.34241 9.66522 8.50398C9.18459 9.16925 8.52002 9.73333 7.77235 10.1107C7.63685 10.1791 7.18322 10.3671 7.15368 10.3671C7.14516 10.3671 7.2228 10.2806 7.3262 10.1748C7.55787 9.93778 7.79253 9.64689 7.96927 9.37757C8.13171 9.13008 8.41542 8.55668 8.50688 8.29108L8.5736 8.0973L9.26658 7.97606C9.99652 7.84835 10.0564 7.84009 10.0564 7.86706ZM3.03487 8.20454C3.58525 8.30749 4.20313 8.37971 4.82294 8.41352L5.30164 8.43966V9.53245C5.30164 10.7892 5.33296 10.6525 5.0593 10.5902C4.16997 10.388 3.35481 9.52451 2.86346 8.26434C2.84386 8.21407 2.83635 8.17291 2.84679 8.17291C2.8572 8.17291 2.94184 8.18715 3.03487 8.20454ZM8.11822 8.28585C7.63186 9.52753 6.81379 10.3895 5.93124 10.5902C5.65758 10.6525 5.6889 10.7892 5.6889 9.53245V8.43966L6.1676 8.41352C6.77612 8.38033 7.54692 8.28869 8.00172 8.1955C8.17082 8.16085 8.16803 8.15867 8.11822 8.28585Z" fill="white"/>
</svg>
