<svg width="34" height="35" viewBox="0 0 34 35" fill="none" xmlns="http://www.w3.org/2000/svg">
<rect y="0.533203" width="34" height="34" rx="5" fill="#181A36"/>
<path fill-rule="evenodd" clip-rule="evenodd" d="M12.7974 9.57863C11.0155 9.82881 9.58131 11.1108 9.1433 12.8449C9.10206 13.0082 9.05322 13.2684 9.03475 13.4231C8.98842 13.8113 8.98842 21.2534 9.03475 21.6416C9.25207 23.4627 10.5476 24.9439 12.3131 25.3899C12.4764 25.4311 12.7365 25.48 12.8911 25.4984C13.2793 25.5448 20.7207 25.5448 21.1089 25.4984C22.7501 25.3025 24.1223 24.2315 24.7185 22.681C24.815 22.43 24.9279 21.9545 24.9652 21.6416C25.0116 21.2534 25.0116 13.8113 24.9652 13.4231C24.7694 11.7817 23.6984 10.4093 22.1481 9.813C21.8971 9.71647 21.4217 9.6036 21.1089 9.56626C20.6812 9.5152 13.1695 9.52638 12.7974 9.57863ZM22.0485 11.6155C22.4539 11.7518 22.7787 12.0768 22.916 12.4833C22.981 12.6758 22.9833 13.0579 22.9207 13.2642C22.6644 14.1091 21.656 14.4718 20.9205 13.9836C20.4893 13.6973 20.2606 13.1876 20.3405 12.691C20.4207 12.193 20.7618 11.7822 21.2268 11.6238C21.4415 11.5506 21.8434 11.5465 22.0485 11.6155ZM21.4648 12.548C21.2849 12.6458 21.2143 12.9108 21.3238 13.0778C21.5372 13.4037 22.0306 13.2619 22.0306 12.8748C22.0306 12.596 21.7134 12.4128 21.4648 12.548ZM17.6874 13.2028C18.6166 13.3578 19.4353 13.7775 20.0949 14.4372C20.9332 15.2756 21.3734 16.3412 21.3734 17.5324C21.3734 18.7235 20.9332 19.7891 20.0949 20.6275C19.2565 21.466 18.1911 21.9062 17 21.9062C15.8089 21.9062 14.7435 21.466 13.9051 20.6275C13.0668 19.7891 12.6266 18.7235 12.6266 17.5324C12.6266 16.3412 13.0668 15.2756 13.9051 14.4372C14.5541 13.7881 15.374 13.3632 16.2813 13.2057C16.6026 13.15 17.3611 13.1484 17.6874 13.2028ZM16.3951 14.1449C14.7653 14.4393 13.5629 15.8774 13.5629 17.5324C13.5629 19.6528 15.4973 21.2849 17.5801 20.9217C19.87 20.5223 21.1158 18.0189 20.0516 15.9554C19.3658 14.6257 17.8602 13.8802 16.3951 14.1449Z" fill="#282A4F"/>
</svg>
