<svg width="34" height="35" viewBox="0 0 34 35" fill="none" xmlns="http://www.w3.org/2000/svg">
<rect y="0.533203" width="34" height="34" rx="5" fill="#181A36"/>
<path fill-rule="evenodd" clip-rule="evenodd" d="M23.9223 11.6038C22.8573 11.986 9.73143 16.9051 9.5381 16.9945C8.89569 17.2915 8.82058 17.6838 9.35538 17.9492C9.40702 17.9748 10.2955 18.252 11.3297 18.5651L13.2102 19.1344L17.4801 16.5288C19.8286 15.0957 21.7974 13.907 21.8552 13.8874C22.0002 13.8381 22.125 13.8427 22.1832 13.8995C22.224 13.9393 22.2257 13.9593 22.1933 14.0177C22.1718 14.0564 20.6123 15.4379 18.7277 17.0878C16.8431 18.7377 15.296 20.1005 15.2898 20.1163C15.2836 20.1321 15.2198 20.9558 15.1481 21.9468L15.0178 23.7486L15.1594 23.7299C15.2373 23.7197 15.3607 23.6805 15.4336 23.6428C15.5065 23.6051 15.9972 23.1715 16.524 22.6793C17.0508 22.1871 17.5001 21.7775 17.5224 21.7692C17.5446 21.7609 18.3836 22.3405 19.3867 23.0574C20.3897 23.7742 21.289 24.3962 21.385 24.4395C21.637 24.5531 21.9209 24.5644 22.1052 24.4681C22.2699 24.3822 22.4308 24.1687 22.4985 23.9463C22.5247 23.8603 23.0981 21.2756 23.7729 18.2026C24.8962 13.0862 24.9996 12.5909 25 12.3253C25.0004 12.0744 24.9897 12.0148 24.9208 11.8827C24.8722 11.7896 24.7893 11.6945 24.7083 11.639C24.5231 11.5119 24.2166 11.4982 23.9223 11.6038Z" fill="#282A4F"/>
</svg>
