<svg width="34" height="35" viewBox="0 0 34 35" fill="none" xmlns="http://www.w3.org/2000/svg">
<rect y="0.533203" width="34" height="34" rx="5" fill="#181A36"/>
<path fill-rule="evenodd" clip-rule="evenodd" d="M15.3805 12.5394C15.0001 12.5661 14.5179 12.6373 14.3249 12.6951C13.9936 12.7945 13.5807 13.149 13.6571 13.2686C13.6711 13.2905 13.748 13.3203 13.8278 13.3346C14.1864 13.399 14.4889 13.5957 14.6245 13.8527C14.8562 14.292 14.9604 15.666 14.8357 16.6387C14.7534 17.2816 14.7185 17.4307 14.5964 17.6638C14.2687 18.2892 13.5161 17.7829 12.6867 16.3792C12.3915 15.8797 11.5608 14.2765 11.3755 13.8487C11.1514 13.3317 11.0805 13.2365 10.8258 13.1111L10.6108 13.0053L8.98834 13.0166C7.52318 13.0268 7.35358 13.0344 7.23914 13.0948C7.05774 13.1907 6.98025 13.3216 7.00425 13.4918C7.02994 13.6742 7.64531 14.997 8.09879 15.8447C8.98165 17.495 9.7294 18.6934 10.5288 19.7391C11.7044 21.277 12.2246 21.7759 13.4257 22.5181C13.9866 22.8647 14.3914 23.0586 14.8918 23.2203C15.5794 23.4425 15.8787 23.4853 16.9053 23.508C17.9269 23.5306 18.2204 23.5021 18.4369 23.3593C18.6152 23.2417 18.6703 23.0794 18.7036 22.5748C18.7365 22.0768 18.837 21.6498 18.9753 21.4217C19.0972 21.2204 19.3623 20.988 19.476 20.9826C19.8728 20.9637 20.095 21.1231 20.9239 22.0218C21.7012 22.8643 21.9884 23.1123 22.4178 23.3111C22.6113 23.4007 22.8489 23.4916 22.9456 23.5131C23.1802 23.5651 26.3466 23.5066 26.5511 23.4465C26.7535 23.3869 26.9715 23.1801 26.9765 23.0429C26.9901 22.6676 26.9336 22.4984 26.662 22.1019C26.3052 21.5807 25.9986 21.2479 24.9548 20.2486C23.8465 19.1875 23.7691 19.0887 23.7675 18.7337C23.7662 18.4357 23.9102 18.2067 24.8833 16.9601C26.2559 15.2015 26.8055 14.352 26.9584 13.7532C27.048 13.402 26.997 13.2325 26.7657 13.1129L26.6011 13.0279L24.6267 13.0406C23.2311 13.0495 22.6242 13.0662 22.5561 13.0973C22.4236 13.1578 22.2831 13.3786 22.1071 13.803C21.6381 14.9334 20.6726 16.5618 20.0364 17.2955C19.7831 17.5875 19.3896 17.8864 19.2584 17.8864C19.0751 17.8864 18.924 17.7719 18.8095 17.5464L18.7037 17.3382L18.7144 15.3751C18.7259 13.2641 18.721 13.2018 18.519 12.923C18.32 12.6485 17.8349 12.5543 16.5339 12.5378C16.0071 12.5311 15.4881 12.5318 15.3805 12.5394Z" fill="#282A4F"/>
</svg>
