<svg width="55" height="55" viewBox="0 0 55 55" fill="none" xmlns="http://www.w3.org/2000/svg">
<rect width="55" height="55" rx="10" fill="#121326"/>
<path fill-rule="evenodd" clip-rule="evenodd" d="M16.5447 14.0534C15.992 14.1937 15.4491 14.6913 15.1813 15.3028L15.0258 15.6578L15.0129 24.4088L15 33.1598H15.4156H15.8312V25.3195V17.4793H21.0532H26.2751L26.2882 18.786L26.3012 20.0927H26.6917H27.0822L27.095 18.0886C27.1026 16.8869 27.0878 15.9674 27.0579 15.792C26.9165 14.9619 26.3367 14.2873 25.5764 14.0684C25.3718 14.0094 24.5242 13.9968 21.0296 14.0006C18.633 14.0033 16.6505 14.0266 16.5447 14.0534ZM25.718 15.0784C25.866 15.1774 26.0132 15.3365 26.1047 15.4965C26.232 15.7193 26.2548 15.8156 26.2696 16.1947L26.2868 16.6345H21.059H15.8312V16.2368C15.8312 15.6361 16.0301 15.2646 16.4902 15.0058C16.6841 14.8967 16.7141 14.8961 21.0823 14.9073L25.4791 14.9186L25.718 15.0784ZM29.317 16.7105C28.6348 16.943 28.0762 17.6294 27.9382 18.4049C27.9073 18.5782 27.8888 19.0288 27.897 19.4063L27.912 20.0927L33.5373 20.1061L39.1626 20.1195L39.175 27.9463L39.1873 35.7732L39.59 35.7885L39.9927 35.8038V27.1806C39.9927 19.5575 39.9839 18.5209 39.917 18.2427C39.7655 17.6136 39.3778 17.1087 38.8311 16.8285L38.504 16.6609L34.0134 16.6507C30.3965 16.6425 29.4827 16.6541 29.317 16.7105ZM38.504 17.6198C38.957 17.8847 39.1629 18.2693 39.1629 18.8503V19.2215H33.9401H28.7174L28.7184 18.8652C28.7204 18.2 29.0395 17.7136 29.5957 17.528C29.6629 17.5056 31.6509 17.4914 34.0134 17.4964L38.3087 17.5057L38.504 17.6198ZM19.8337 19.6724V20.1234L20.2364 20.108L20.6391 20.0927L20.6533 19.6571L20.6675 19.2215H20.2506H19.8337V19.6724ZM21.4445 19.6724V20.1234L21.8472 20.108L22.2499 20.0927L22.264 19.6571L22.2782 19.2215H21.8613H21.4445V19.6724ZM23.0553 19.6724V20.1234L23.4579 20.108L23.8606 20.0927L23.8748 19.6571L23.889 19.2215H23.4721H23.0553V19.6724ZM26.9601 20.9933C26.893 21.0058 26.6844 21.0429 26.4964 21.0756C25.7696 21.2025 25.0183 21.5341 24.3243 22.0344C23.8196 22.3982 23.0432 23.2669 22.7243 23.8246C21.0183 26.8075 21.9245 30.6576 24.7413 32.3938C26.0902 33.2253 27.8672 33.3971 29.3334 32.8379C30.1766 32.5163 30.8563 32.056 31.4731 31.3888C33.3395 29.37 33.6659 26.2707 32.2699 23.8234C31.9548 23.2712 31.1334 22.3548 30.6454 22.0114C29.6877 21.3373 28.8124 21.0357 27.6923 20.9935C27.3567 20.981 27.0273 20.9808 26.9601 20.9933ZM28.7418 22.0164C30.2343 22.4543 31.5145 23.7228 32.0354 25.2799C33.0235 28.2336 31.4362 31.4027 28.5859 32.1668C27.9802 32.3292 27.0139 32.3292 26.4082 32.1668C25.4707 31.9155 24.6648 31.4171 24.0289 30.6952C23.1703 29.7206 22.7381 28.6323 22.6802 27.2994C22.5683 24.722 24.1985 22.4745 26.5697 21.937C27.0557 21.8269 28.2438 21.8703 28.7418 22.0164ZM18.2759 24.5318C17.4325 25.7491 16.6913 26.8184 16.6287 26.908L16.515 27.0711L18.1744 29.4643L19.8337 31.8576V30.344V28.8305H20.4439H21.054V28.3817V27.9329H20.0534H19.0527V28.5665C19.0527 28.9149 19.0362 29.1991 19.0161 29.1979C18.996 29.1968 18.6537 28.7225 18.2555 28.1441C17.7811 27.455 17.5446 27.0689 17.5696 27.0242C17.5905 26.9868 17.9273 26.4948 18.318 25.9307L19.0283 24.9053L19.0421 25.548L19.0558 26.1906H20.0549H21.054V25.7683V25.3459H20.4446H19.8352L19.8222 23.8323L19.8093 22.3187L18.2759 24.5318ZM35.1604 23.8299V25.3459H34.5503H33.9401V25.7683V26.1906H34.9393H35.9384L35.9521 25.548L35.9658 24.9053L36.6762 25.9307C37.0668 26.4948 37.4036 26.9868 37.4246 27.0242C37.4496 27.0689 37.213 27.455 36.7386 28.1441C36.3404 28.7225 35.9982 29.1968 35.978 29.1979C35.9579 29.1991 35.9414 28.9149 35.9414 28.5665V27.9329H34.9408H33.9401V28.3817V28.8305H34.5503H35.1604V30.344V31.8576L36.8196 29.4646C37.8682 27.9522 38.4636 27.0504 38.4374 27.0139C38.4146 26.9822 37.6981 25.9465 36.8452 24.7123C35.9924 23.4782 35.2643 22.4337 35.2275 22.3912C35.1705 22.3255 35.1604 22.5419 35.1604 23.8299ZM27.1066 23.1486V23.5911L26.8747 23.6542C25.4056 24.0537 25.0039 26.1163 26.2036 27.1008C26.5367 27.3742 26.9626 27.5103 27.49 27.5117C27.9911 27.5131 28.2362 27.6121 28.4576 27.9027C28.6029 28.0933 28.7176 28.4012 28.7171 28.599C28.7161 28.9682 28.4615 29.3876 28.126 29.5727C27.8619 29.7184 27.1322 29.7184 26.8681 29.5727C26.5154 29.3781 26.2779 28.9684 26.2771 28.5533L26.2768 28.4081H25.8798H25.4827L25.507 28.7756C25.5372 29.2321 25.7092 29.6336 26.0171 29.9667C26.2686 30.2387 26.4303 30.3409 26.8137 30.4701L27.0822 30.5605L27.0963 30.989L27.1105 31.4175H27.4971H27.8836L27.8978 30.9852L27.912 30.5529L28.1316 30.492C28.6601 30.3454 29.0919 29.9623 29.3369 29.4227C29.4593 29.153 29.4739 29.0646 29.4739 28.5929C29.4739 28.122 29.4592 28.0325 29.3378 27.7651C29.1593 27.372 28.7115 26.9217 28.3557 26.7777C28.1806 26.7069 27.9063 26.6579 27.5609 26.6358C26.9048 26.5937 26.6671 26.4885 26.4701 26.1525C26.1967 25.6862 26.2424 25.1689 26.5901 24.7934C26.8229 24.5419 27.0688 24.4484 27.4971 24.4484C27.9253 24.4484 28.1712 24.5419 28.4041 24.7934C28.6016 25.0067 28.7174 25.3171 28.7174 25.6333C28.7174 25.767 28.7211 25.7683 29.1134 25.7683H29.5094L29.4897 25.4119C29.444 24.5788 28.8856 23.8625 28.1194 23.6542L27.8876 23.5911V23.1486V22.7061H27.4971H27.1066V23.1486ZM15.0014 35.2605C15.0014 36.5744 15.0442 36.8925 15.2797 37.3271C15.4683 37.6753 15.8158 38.0138 16.1729 38.1972L16.4902 38.3602H21.054H25.6178L25.8987 38.2178C26.4749 37.9258 26.9407 37.2744 27.0575 36.5975C27.0845 36.4411 27.1066 35.8055 27.1066 35.1852V34.0573H21.054H15.0014V35.2605ZM27.8972 36.6839C27.9114 39.2098 27.9159 39.3208 28.0142 39.5795C28.245 40.1865 28.6617 40.6453 29.1932 40.8774L29.4739 41H33.9646H38.4552L38.7833 40.8318C39.2392 40.5982 39.5641 40.2534 39.7865 39.767L39.9683 39.3692L39.9842 38.0068L40 36.6443H34.3587H28.7174V35.3508V34.0573H28.2999H27.8825L27.8972 36.6839ZM31.1091 34.4797V34.902H31.524H31.9389V34.4797V34.0573H31.524H31.1091V34.4797ZM32.7199 34.4797V34.902H33.1348H33.5497V34.4797V34.0573H33.1348H32.7199V34.4797ZM34.3306 34.4797V34.902H34.7455H35.1604V34.4797V34.0573H34.7455H34.3306V34.4797ZM26.2757 35.7072C26.2748 36.4027 26.2611 36.5447 26.1752 36.7499C26.0527 37.0428 25.8734 37.2523 25.6178 37.4015L25.4226 37.5154H21.054H16.6854L16.4902 37.4013C16.3828 37.3385 16.2246 37.2078 16.1388 37.1109C15.8693 36.8069 15.8312 36.6346 15.8312 35.7221V34.902H21.054H26.2768L26.2757 35.7072ZM19.0527 36.2219V36.6443H21.054H23.0553V36.2219V35.7996H21.054H19.0527V36.2219ZM39.1629 38.3623C39.1629 39.092 39.1515 39.2073 39.0598 39.405C38.9183 39.71 38.7881 39.8533 38.5163 40.0029L38.2846 40.1305L33.8998 40.1165L29.515 40.1025L29.2761 39.9427C29.1283 39.8438 28.9809 39.6845 28.8895 39.5247C28.743 39.2688 28.7416 39.259 28.7263 38.4042L28.7108 37.5418H33.9369H39.1629V38.3623ZM31.9389 38.8354V39.2841H33.9401H35.9414V38.8354V38.3866H33.9401H31.9389V38.8354Z" fill="#B436CD"/>
</svg>
