<svg width="55" height="55" viewBox="0 0 55 55" fill="none" xmlns="http://www.w3.org/2000/svg">
<rect width="55" height="55" rx="10" fill="#121326"/>
<path fill-rule="evenodd" clip-rule="evenodd" d="M24.9267 19.0525C22.728 19.3886 20.9257 20.4429 19.7592 22.0754C19.4355 22.5284 19.0762 23.1911 18.9346 23.5962L18.8481 23.8438L17.3664 23.844C16.4891 23.8442 15.8063 23.8645 15.6927 23.8937C15.5871 23.9209 15.4229 24.0067 15.3277 24.0843C14.9712 24.3749 14.9913 23.9708 15.0069 30.5162L15.021 36.4106L15.1397 36.5878C15.205 36.6853 15.3556 36.8179 15.4744 36.8825L15.6903 37H28H40.3097L40.5256 36.8825C40.6444 36.8179 40.795 36.6853 40.8603 36.5878L40.979 36.4106L40.9931 30.5162C41.0087 23.9708 41.0288 24.3749 40.6723 24.0843C40.5771 24.0067 40.4129 23.9209 40.3073 23.8937C40.1825 23.8616 38.9597 23.8442 36.8096 23.844L33.5037 23.8438L33.3435 23.4547C32.425 21.224 30.4347 19.6587 27.8359 19.1229C27.2301 18.998 25.5494 18.9573 24.9267 19.0525ZM27.492 19.813C28.0358 19.9217 28.8443 20.1789 29.274 20.3798C30.714 21.0529 31.8901 22.2016 32.5431 23.5726L32.6722 23.8438L32.2283 23.8424L31.7845 23.8411L31.5611 23.4927C30.7616 22.2459 29.3902 21.361 27.8278 21.084C27.2903 20.9887 26.3136 20.9896 25.7725 21.0859C24.4134 21.3277 23.1215 22.0886 22.3369 23.1092C22.0143 23.5289 21.6298 24.3008 21.466 24.8576C21.3407 25.284 21.327 25.4082 21.3238 26.1544C21.3207 26.8757 21.3349 27.0296 21.4371 27.3772C21.6599 28.1347 22.0637 28.7933 22.6065 29.2845C22.9254 29.573 23.003 29.5615 23.4205 29.1643C23.7128 28.8861 23.728 28.8782 23.7568 28.9873C23.7734 29.0501 23.9309 29.823 24.1067 30.7048C24.3357 31.8535 24.4091 32.3121 24.3655 32.3222C24.3187 32.333 21.6292 31.8886 20.8195 31.7363L20.6747 31.709L20.9756 31.4374C21.1411 31.288 21.3061 31.0993 21.3424 31.0181C21.4204 30.8433 21.4045 30.8152 20.9631 30.3511C20.2311 29.5813 19.7209 28.6622 19.4335 27.5959C19.2548 26.9328 19.2105 25.7687 19.3372 25.0647C19.7295 22.8854 21.2507 21.0728 23.3925 20.2328C23.9671 20.0074 24.6983 19.8152 25.2569 19.7425C25.7282 19.6813 27.04 19.7226 27.492 19.813ZM28.1159 21.8813C29.1821 22.1773 30.1359 22.8122 30.7412 23.6289L30.9004 23.8438H26.8291H22.7578L22.8544 23.7021C23.2615 23.1053 24.023 22.4794 24.7124 22.175C25.5312 21.8135 26.017 21.7197 26.9586 21.7412C27.545 21.7546 27.748 21.7792 28.1159 21.8813ZM18.5736 24.7986C18.5529 24.9089 18.5223 25.1264 18.5056 25.282L18.4753 25.5649L17.9837 25.5885C17.442 25.6146 17.3061 25.6719 17.091 25.9653L16.9767 26.1212V30.4455V34.7698L17.0912 34.9274C17.1542 35.0142 17.2856 35.1287 17.3833 35.182L17.5609 35.2788H28H38.4391L38.6167 35.182C38.7144 35.1287 38.8458 35.0142 38.9088 34.9274L39.0233 34.7698V30.4455V26.1212L38.909 25.9653C38.8461 25.8795 38.7302 25.765 38.6513 25.7107L38.5079 25.6121L30.3068 25.5999L22.1057 25.5876L22.1319 25.4702C22.1463 25.4056 22.1706 25.2943 22.1857 25.223C22.2008 25.1517 22.2472 24.9819 22.2888 24.8457L22.3643 24.598L31.2653 24.6099L40.1662 24.6218L40.1791 30.419C40.1894 35.0256 40.1789 36.2239 40.1283 36.2537C40.0549 36.297 16.01 36.3072 15.8887 36.2641C15.816 36.2382 15.8084 35.6819 15.8084 30.4483C15.8084 27.2653 15.8236 24.6469 15.8423 24.6297C15.8608 24.6124 16.4915 24.5982 17.2437 24.5982H18.6112L18.5736 24.7986ZM18.4962 26.8499C18.6002 27.7263 18.8669 28.5827 19.2641 29.3162C19.4767 29.7088 19.9738 30.411 20.2471 30.7048L20.4226 30.8934L19.9696 31.3232C19.5904 31.6832 19.5167 31.7776 19.5167 31.904C19.5167 32.1082 19.5886 32.2187 19.7569 32.2724C19.8343 32.2971 21.0463 32.5157 22.4503 32.7581L25.0028 33.1989L25.1426 33.1025C25.2324 33.0404 25.2879 32.9536 25.2981 32.8589C25.3152 32.6997 24.4265 28.1927 24.3372 27.9857C24.2728 27.8365 24.042 27.7352 23.8764 27.7835C23.8115 27.8024 23.5696 27.9886 23.3389 28.1972C22.857 28.6331 22.9068 28.6421 22.5993 28.0641C22.3254 27.5492 22.1074 26.8479 22.1074 26.4814V26.343H30.1843H38.2613V28.9524C38.2613 30.3875 38.2462 32.2337 38.2277 33.0549L38.1941 34.5479H29.8796C25.3067 34.5479 20.7043 34.5339 19.652 34.5167L17.7387 34.4855V30.4142V26.343H18.0873H18.436L18.4962 26.8499ZM27.8084 27.3648C27.7068 27.4027 27.5936 27.643 27.5936 27.8208C27.5936 27.9674 27.5773 27.9858 27.4231 28.0126C26.8105 28.1193 26.2575 28.894 26.3468 29.5206C26.4547 30.2777 27.0383 30.7592 27.8984 30.8009C28.5578 30.8328 28.8382 31.0433 28.8382 31.5064C28.8382 31.9163 28.5511 32.1922 28.091 32.2246C27.604 32.2588 27.1923 31.9675 27.1179 31.536C27.0968 31.4129 27.0395 31.3146 26.9518 31.2505C26.7987 31.1387 26.7344 31.1315 26.5581 31.2061C26.0043 31.4402 26.5541 32.577 27.3476 32.8386C27.5677 32.9111 27.5937 32.9346 27.5944 33.0618C27.5954 33.2534 27.6942 33.4224 27.8541 33.5057C28.125 33.6469 28.4064 33.4112 28.4064 33.043C28.4064 32.9366 28.4431 32.9077 28.6731 32.8331C29.0574 32.7083 29.4709 32.3069 29.5959 31.9373C29.7704 31.4213 29.627 30.8712 29.2192 30.4926C28.9173 30.2124 28.6254 30.1059 28.067 30.0723C27.7085 30.0508 27.5673 30.0217 27.4574 29.9468C26.9947 29.6318 27.0597 28.9514 27.574 28.7249C27.8203 28.6164 28.3006 28.6445 28.4959 28.7789C28.6958 28.9163 28.8448 29.1386 28.8821 29.3549C28.9142 29.5418 29.1023 29.7381 29.249 29.7381C29.3932 29.7381 29.5707 29.6252 29.6279 29.497C29.7426 29.2399 29.5499 28.7104 29.2294 28.4019C29.0394 28.2191 28.6277 27.9934 28.4843 27.9934C28.4325 27.9934 28.4064 27.9483 28.4064 27.859C28.4064 27.6626 28.3079 27.4324 28.2012 27.3794C28.1036 27.3309 27.9177 27.324 27.8084 27.3648ZM33.3475 28.8843C33.0236 28.9961 32.8495 29.1079 32.5993 29.3649C32.2869 29.6859 32.1925 29.9308 32.1916 30.4219C32.191 30.7892 32.2101 30.8843 32.3335 31.1292C32.9016 32.2564 34.5407 32.3896 35.286 31.3691C35.9016 30.5263 35.5959 29.4219 34.6242 28.9779C34.2012 28.7845 33.7356 28.7504 33.3475 28.8843ZM34.4945 29.7239C35.0407 30.1106 34.9451 30.9682 34.3247 31.247C33.834 31.4674 33.2997 31.2903 33.0417 30.8218C32.8387 30.4528 32.9369 30.0473 33.3014 29.7502C33.4746 29.609 33.5449 29.5799 33.8164 29.5372C33.9942 29.5092 34.3166 29.598 34.4945 29.7239Z" fill="#FD592E"/>
</svg>
