<svg width="55" height="55" viewBox="0 0 55 55" fill="none" xmlns="http://www.w3.org/2000/svg">
<rect width="55" height="55" rx="10" fill="#121326"/>
<path fill-rule="evenodd" clip-rule="evenodd" d="M27.5803 12.0379C27.2487 12.1494 26.9953 12.3284 26.5269 12.7817C24.5056 14.7385 21.5527 15.9325 18.0092 16.226C17.0792 16.3029 16.7599 16.4174 16.4194 16.796C15.9584 17.3086 15.9886 16.717 16.0102 24.8271C16.0295 32.0643 16.0295 32.0661 16.1614 32.6573C16.7183 35.1536 18.0632 37.3251 19.9554 38.7832C20.5006 39.2033 25.7985 42.3841 26.429 42.6699C26.8278 42.8506 27.5362 43 27.9944 43C28.4786 43 29.1817 42.8447 29.6172 42.6416C30.1544 42.391 35.2834 39.3417 35.8265 38.9501C36.5917 38.3983 37.7678 37.1534 38.2956 36.3366C39.034 35.1938 39.5253 34.0084 39.8305 32.6334C39.9506 32.0924 39.9574 31.8837 39.9782 28.1506L40 24.2352L39.8411 24.1071C39.6352 23.9411 39.5064 23.9455 39.3025 24.1252L39.1366 24.2713L39.1027 28.1383L39.0687 32.0054L38.9159 32.6415C38.5035 34.3575 37.7573 35.788 36.64 37.0043C36.1484 37.5395 35.4382 38.1506 34.9282 38.4771C33.8802 39.1482 29.2793 41.8143 28.9847 41.9212C28.4646 42.11 27.528 42.1114 27.0128 41.9242C26.5649 41.7615 21.1533 38.5686 20.5465 38.1091C19.8535 37.5843 18.9157 36.5752 18.4319 35.8338C17.771 34.8209 17.3774 33.8979 17.0704 32.6415L16.915 32.0054L16.8967 24.8427C16.8798 18.2244 16.886 17.6682 16.9775 17.525C17.1374 17.2751 17.3732 17.1928 18.1106 17.1299C21.8722 16.8091 24.8859 15.5799 27.1211 13.4548C27.8952 12.719 28.0906 12.7163 28.8441 13.4318C31.1093 15.5824 34.1092 16.8072 37.9083 17.1327C38.6075 17.1925 38.875 17.2856 39.0019 17.5131C39.0584 17.6146 39.085 18.2653 39.1071 20.0924L39.1366 22.5361L39.2762 22.6518C39.4571 22.8019 39.7261 22.7994 39.8755 22.6464C39.99 22.5291 39.9937 22.4454 39.9924 20.0264C39.991 17.2307 39.9985 17.2868 39.5558 16.7846C39.2338 16.4193 38.9043 16.3025 37.9796 16.226C34.4169 15.9309 31.4611 14.7264 29.4132 12.7349C29.1693 12.4978 28.8508 12.242 28.7054 12.1666C28.4214 12.0192 27.8353 11.9521 27.5803 12.0379ZM27.5129 15.2116C27.3944 15.2861 26.9293 15.6011 26.4794 15.9117C24.6425 17.18 22.3399 18.0688 19.8584 18.4675C18.9071 18.6204 18.6546 18.7453 18.4743 19.1521C18.3735 19.3796 18.362 19.5639 18.3608 20.9548C18.3595 22.4967 18.3601 22.5047 18.4963 22.6358C18.6898 22.8222 18.9687 22.8098 19.1236 22.6079C19.2399 22.4563 19.2461 22.3738 19.2461 20.9735V19.4987L19.3791 19.4708C19.4523 19.4555 19.8579 19.3836 20.2805 19.311C23.1568 18.8175 25.4763 17.8154 27.9129 16.0136C27.967 15.9736 28.0218 15.9736 28.0759 16.0136C30.5086 17.8125 32.8366 18.8183 35.7083 19.311C36.1309 19.3836 36.5365 19.4555 36.6097 19.4708L36.7427 19.4987V25.2782C36.7427 29.0607 36.7208 31.2191 36.6793 31.5248C36.425 33.3981 35.3882 35.1508 33.8949 36.2311C33.3986 36.5902 28.3938 39.5425 28.1697 39.6083C28.0733 39.6367 27.9186 39.6375 27.8258 39.6103C27.5442 39.5275 22.3207 36.4118 21.8609 36.0523C20.5007 34.989 19.551 33.3036 19.3095 31.5248C19.2707 31.2383 19.2461 29.7578 19.2461 27.6961C19.2461 25.66 19.2237 24.2916 19.1893 24.2257C19.0437 23.9469 18.5635 23.9439 18.4188 24.2209C18.3715 24.3114 18.3592 25.3913 18.3754 28.0249C18.3952 31.2613 18.4104 31.757 18.5015 32.1568C18.7392 33.2002 19.1244 34.1285 19.6702 34.9736C20.0401 35.5464 21.0094 36.5675 21.5514 36.9554C21.7627 37.1067 23.1627 37.9562 24.6625 38.8433C26.7318 40.0673 27.4623 40.4704 27.6919 40.515C28.2831 40.6299 28.4035 40.5754 31.1827 38.9331C32.599 38.0963 33.9837 37.2599 34.2601 37.0746C34.8922 36.6504 35.9045 35.6177 36.3194 34.9736C36.864 34.1282 37.2368 33.2271 37.4908 32.1416C37.5841 31.7427 37.5954 31.1421 37.6137 25.5843C37.6361 18.8015 37.6523 19.1088 37.2546 18.8077C37.0043 18.6182 36.9916 18.6145 35.9815 18.4395C33.4784 18.006 31.2989 17.1526 29.4912 15.8984C29.0541 15.5951 28.5983 15.2861 28.4784 15.2116C28.1886 15.0318 27.7993 15.0318 27.5129 15.2116ZM32.7528 21.9401C32.2684 22.1043 32.0758 22.2616 30.9351 23.4241C29.709 24.6738 29.6546 24.7558 29.855 25.049C29.9745 25.2238 30.2061 25.273 30.4037 25.1657C30.4927 25.1173 31.0179 24.6095 31.5706 24.0374C32.6574 22.9123 32.8568 22.771 33.3605 22.7689C33.8851 22.7666 34.3294 23.0419 34.568 23.5172C34.741 23.8618 34.7428 24.4091 34.5719 24.7363C34.4193 25.0283 27.041 32.5894 26.7826 32.7184C26.4682 32.8755 26.1787 32.8973 25.8189 32.791C25.4937 32.6948 25.416 32.6239 23.5419 30.7128C22.4747 29.6246 21.5396 28.6253 21.4639 28.492C20.9594 27.6035 21.5893 26.4522 22.5851 26.4427C23.1667 26.4371 23.2535 26.4996 24.688 27.9558C25.903 29.1891 26.0398 29.3098 26.2235 29.3098C26.4078 29.3098 26.5436 29.1884 27.8009 27.8999C29.0272 26.6432 29.1766 26.4689 29.1766 26.2946C29.1766 26.0405 28.9971 25.8569 28.7486 25.8569C28.5785 25.8569 28.4263 25.9908 27.3904 27.0513L26.2239 28.2457L25.0846 27.0894C23.8528 25.8391 23.6125 25.6648 22.9761 25.5597C21.4949 25.3152 20.1619 26.6623 20.4168 28.1458C20.5423 28.876 20.5986 28.9486 22.7828 31.1997C24.9774 33.4615 25.1435 33.5989 25.8369 33.7264C26.2777 33.8074 26.778 33.7326 27.1934 33.5233C27.4282 33.405 28.3269 32.5152 31.4011 29.3574C35.1162 25.5413 35.317 25.324 35.4456 24.9786C35.6297 24.4844 35.63 23.787 35.4463 23.2977C35.2661 22.8175 34.8245 22.3367 34.3384 22.0915C34.0181 21.9299 33.872 21.894 33.4712 21.8785C33.1807 21.8673 32.8953 21.8918 32.7528 21.9401Z" fill="#42E8E0"/>
</svg>
